# MagicaVoxel @ ephtracy

# material
mtllib SC_Radio.mtl
usemtl palette

# normals
vn -1 0 0
vn 1 0 0
vn 0 0 1
vn 0 0 -1
vn 0 -1 0
vn 0 1 0

# texcoords
vt 0.865234 0.5
vt 0.958984 0.5
vt 0.966797 0.5
vt 0.974609 0.5
vt 0.978516 0.5
vt 0.982422 0.5

# verts
v -12 1 4
v -12 1 2
v -12 2 2
v -12 2 1
v -12 9 2
v -12 9 1
v -12 10 4
v -12 10 2
v -11 0 4
v -11 0 3
v -11 0 -7
v -11 1 4
v -11 1 3
v -11 1 2
v -11 2 2
v -11 2 1
v -11 9 2
v -11 9 1
v -11 10 4
v -11 10 3
v -11 10 2
v -11 11 4
v -11 11 3
v -11 13 4
v -11 13 -7
v -9 0 5
v -9 0 4
v -9 1 5
v -9 1 4
v -9 11 5
v -9 11 4
v -9 13 5
v -9 13 4
v -9 13 -7
v -9 14 4
v -9 14 -7
v -8 0 6
v -8 0 5
v -8 1 6
v -8 1 5
v -8 13 5
v -8 13 4
v -8 14 5
v -8 14 4
v -7 14 5
v -7 14 4
v -7 14 2
v -7 14 -5
v -7 15 5
v -7 15 4
v -7 15 2
v -7 15 1
v -7 15 -4
v -7 15 -5
v -7 16 1
v -7 16 -1
v -7 16 -3
v -7 16 -4
v -7 18 -1
v -7 18 -3
v -6 0 7
v -6 0 6
v -6 1 7
v -6 1 6
v -6 1 4
v -6 2 6
v -6 2 5
v -6 11 5
v -6 11 4
v -5 3 6
v -5 3 5
v -5 7 6
v -5 7 5
v -3 9 5
v -3 9 4
v -3 10 5
v -3 10 4
v 4 6 6
v 4 6 5
v 4 7 6
v 4 7 5
v 5 9 5
v 5 9 4
v 5 12 5
v 5 12 4
v 6 14 2
v 6 14 -5
v 6 15 2
v 6 15 1
v 6 15 -4
v 6 15 -5
v 6 16 1
v 6 16 -1
v 6 16 -3
v 6 16 -4
v 6 17 -1
v 6 17 -3
v -6 14 2
v -6 14 -5
v -6 15 2
v -6 15 1
v -6 15 -4
v -6 15 -5
v -6 16 1
v -6 16 -1
v -6 16 -3
v -6 16 -4
v -6 17 -1
v -6 17 -3
v -5 9 5
v -5 9 4
v -5 12 5
v -5 12 4
v -4 6 6
v -4 6 5
v -4 7 6
v -4 7 5
v 3 9 5
v 3 9 4
v 3 10 5
v 3 10 4
v 5 3 6
v 5 3 5
v 5 7 6
v 5 7 5
v 6 0 7
v 6 0 6
v 6 1 7
v 6 1 6
v 6 1 4
v 6 2 6
v 6 2 5
v 6 11 5
v 6 11 4
v 7 14 5
v 7 14 4
v 7 14 2
v 7 14 -5
v 7 15 5
v 7 15 4
v 7 15 2
v 7 15 1
v 7 15 -4
v 7 15 -5
v 7 16 1
v 7 16 -1
v 7 16 -3
v 7 16 -4
v 7 18 -1
v 7 18 -3
v 8 0 6
v 8 0 5
v 8 1 6
v 8 1 5
v 8 13 5
v 8 13 4
v 8 14 5
v 8 14 4
v 9 0 5
v 9 0 4
v 9 1 5
v 9 1 4
v 9 11 5
v 9 11 4
v 9 13 5
v 9 13 4
v 9 13 -7
v 9 14 4
v 9 14 -7
v 11 0 4
v 11 0 3
v 11 0 -7
v 11 1 4
v 11 1 3
v 11 1 2
v 11 2 2
v 11 2 1
v 11 9 2
v 11 9 1
v 11 10 4
v 11 10 3
v 11 10 2
v 11 11 4
v 11 11 3
v 11 13 4
v 11 13 -7
v 12 1 4
v 12 1 2
v 12 2 2
v 12 2 1
v 12 9 2
v 12 9 1
v 12 10 4
v 12 10 2
v -6 0 7
v -6 1 7
v 6 0 7
v 6 1 7
v -8 0 6
v -8 1 6
v -6 0 6
v -6 1 6
v -6 2 6
v -5 3 6
v -5 7 6
v -4 3 6
v -4 4 6
v -4 6 6
v -4 7 6
v -3 3 6
v -3 4 6
v -1 3 6
v -1 4 6
v 1 3 6
v 1 4 6
v 3 3 6
v 3 4 6
v 4 3 6
v 4 4 6
v 4 6 6
v 4 7 6
v 5 3 6
v 5 7 6
v 6 0 6
v 6 1 6
v 6 2 6
v 8 0 6
v 8 1 6
v -9 0 5
v -9 1 5
v -9 11 5
v -9 13 5
v -8 0 5
v -8 1 5
v -8 11 5
v -8 13 5
v -8 14 5
v -7 13 5
v -7 14 5
v -7 15 5
v -6 2 5
v -6 11 5
v -5 3 5
v -5 7 5
v -5 9 5
v -5 12 5
v -4 3 5
v -4 6 5
v -4 7 5
v -3 3 5
v -3 9 5
v -3 10 5
v -1 3 5
v 1 3 5
v 3 3 5
v 3 9 5
v 3 10 5
v 4 3 5
v 4 6 5
v 4 7 5
v 5 3 5
v 5 7 5
v 5 9 5
v 5 12 5
v 6 2 5
v 6 11 5
v 7 13 5
v 7 14 5
v 7 15 5
v 8 0 5
v 8 1 5
v 8 11 5
v 8 13 5
v 8 14 5
v 9 0 5
v 9 1 5
v 9 11 5
v 9 13 5
v -12 1 4
v -12 10 4
v -11 0 4
v -11 1 4
v -11 2 4
v -11 3 4
v -11 4 4
v -11 6 4
v -11 7 4
v -11 9 4
v -11 10 4
v -11 11 4
v -11 13 4
v -10 1 4
v -10 2 4
v -10 3 4
v -10 4 4
v -10 5 4
v -10 6 4
v -10 7 4
v -10 8 4
v -10 9 4
v -10 10 4
v -9 0 4
v -9 1 4
v -9 2 4
v -9 3 4
v -9 5 4
v -9 6 4
v -9 8 4
v -9 9 4
v -9 11 4
v -9 13 4
v -9 14 4
v -8 1 4
v -8 2 4
v -8 4 4
v -8 5 4
v -8 7 4
v -8 8 4
v -8 11 4
v -8 13 4
v -8 14 4
v -7 1 4
v -7 2 4
v -7 4 4
v -7 5 4
v -7 7 4
v -7 8 4
v -7 10 4
v -6 1 4
v -6 11 4
v -5 9 4
v -5 12 4
v -3 9 4
v -3 10 4
v 3 9 4
v 3 10 4
v 5 9 4
v 5 12 4
v 6 1 4
v 6 11 4
v 7 1 4
v 7 2 4
v 7 4 4
v 7 5 4
v 7 7 4
v 7 8 4
v 7 10 4
v 8 1 4
v 8 2 4
v 8 4 4
v 8 5 4
v 8 7 4
v 8 8 4
v 8 11 4
v 8 13 4
v 8 14 4
v 9 0 4
v 9 1 4
v 9 2 4
v 9 3 4
v 9 5 4
v 9 6 4
v 9 8 4
v 9 9 4
v 9 11 4
v 9 13 4
v 9 14 4
v 10 1 4
v 10 2 4
v 10 3 4
v 10 4 4
v 10 5 4
v 10 6 4
v 10 7 4
v 10 8 4
v 10 9 4
v 10 10 4
v 11 0 4
v 11 1 4
v 11 2 4
v 11 3 4
v 11 4 4
v 11 6 4
v 11 7 4
v 11 9 4
v 11 10 4
v 11 11 4
v 11 13 4
v 12 1 4
v 12 10 4
v -7 14 2
v -7 15 2
v -6 14 2
v -6 15 2
v 6 14 2
v 6 15 2
v 7 14 2
v 7 15 2
v -7 15 1
v -7 16 1
v -6 15 1
v -6 16 1
v 6 15 1
v 6 16 1
v 7 15 1
v 7 16 1
v -7 16 -1
v -7 18 -1
v -6 16 -1
v -6 17 -1
v 6 16 -1
v 6 17 -1
v 7 16 -1
v 7 18 -1
v -7 14 4
v -7 15 4
v 7 14 4
v 7 15 4
v -12 1 2
v -12 2 2
v -12 9 2
v -12 10 2
v -11 1 2
v -11 2 2
v -11 9 2
v -11 10 2
v 11 1 2
v 11 2 2
v 11 9 2
v 11 10 2
v 12 1 2
v 12 2 2
v 12 9 2
v 12 10 2
v -12 2 1
v -12 9 1
v -11 2 1
v -11 9 1
v 11 2 1
v 11 9 1
v 12 2 1
v 12 9 1
v -7 16 -3
v -7 18 -3
v -6 16 -3
v -6 17 -3
v 6 16 -3
v 6 17 -3
v 7 16 -3
v 7 18 -3
v -7 15 -4
v -7 16 -4
v -6 15 -4
v -6 16 -4
v 6 15 -4
v 6 16 -4
v 7 15 -4
v 7 16 -4
v -7 14 -5
v -7 15 -5
v -6 14 -5
v -6 15 -5
v 6 14 -5
v 6 15 -5
v 7 14 -5
v 7 15 -5
v -11 0 -7
v -11 13 -7
v -9 13 -7
v -9 14 -7
v 9 13 -7
v 9 14 -7
v 11 0 -7
v 11 13 -7
v -6 0 7
v 6 0 7
v -8 0 6
v -6 0 6
v 6 0 6
v 8 0 6
v -9 0 5
v -8 0 5
v 8 0 5
v 9 0 5
v -11 0 4
v -9 0 4
v 9 0 4
v 11 0 4
v -11 0 3
v -9 0 3
v 9 0 3
v 11 0 3
v -11 0 -7
v 11 0 -7
v -12 1 4
v -11 1 4
v 11 1 4
v 12 1 4
v -11 1 3
v 11 1 3
v -12 1 2
v -11 1 2
v 11 1 2
v 12 1 2
v -12 2 2
v -11 2 2
v 11 2 2
v 12 2 2
v -12 2 1
v -11 2 1
v 11 2 1
v 12 2 1
v -5 3 6
v -4 3 6
v -3 3 6
v -1 3 6
v 1 3 6
v 3 3 6
v 4 3 6
v 5 3 6
v -5 3 5
v -4 3 5
v -3 3 5
v -1 3 5
v 1 3 5
v 3 3 5
v 4 3 5
v 5 3 5
v -9 11 5
v -8 11 5
v -6 11 5
v 6 11 5
v 8 11 5
v 9 11 5
v -9 11 4
v -8 11 4
v -6 11 4
v 6 11 4
v 8 11 4
v 9 11 4
v -5 12 5
v 5 12 5
v -5 12 4
v 5 12 4
v -6 17 -1
v 6 17 -1
v -6 17 -3
v 6 17 -3
v -6 1 7
v 6 1 7
v -8 1 6
v -6 1 6
v 6 1 6
v 8 1 6
v -9 1 5
v -8 1 5
v 8 1 5
v 9 1 5
v -9 1 4
v -8 1 4
v -7 1 4
v -6 1 4
v 6 1 4
v 7 1 4
v 8 1 4
v 9 1 4
v -6 2 6
v 6 2 6
v -6 2 5
v 6 2 5
v -4 6 6
v 4 6 6
v -4 6 5
v 4 6 5
v -5 7 6
v -4 7 6
v 4 7 6
v 5 7 6
v -5 7 5
v -4 7 5
v 4 7 5
v 5 7 5
v -5 9 5
v -3 9 5
v 3 9 5
v 5 9 5
v -5 9 4
v -3 9 4
v 3 9 4
v 5 9 4
v -12 9 2
v -11 9 2
v 11 9 2
v 12 9 2
v -12 9 1
v -11 9 1
v 11 9 1
v 12 9 1
v -3 10 5
v 3 10 5
v -12 10 4
v -11 10 4
v -3 10 4
v 3 10 4
v 11 10 4
v 12 10 4
v -11 10 3
v 11 10 3
v -12 10 2
v -11 10 2
v 11 10 2
v 12 10 2
v -9 13 5
v -8 13 5
v 8 13 5
v 9 13 5
v -11 13 4
v -9 13 4
v -8 13 4
v 8 13 4
v 9 13 4
v 11 13 4
v -11 13 -7
v -9 13 -7
v 9 13 -7
v 11 13 -7
v -8 14 5
v -7 14 5
v 7 14 5
v 8 14 5
v -9 14 4
v -8 14 4
v -7 14 4
v 7 14 4
v 8 14 4
v 9 14 4
v -7 14 2
v -6 14 2
v 6 14 2
v 7 14 2
v -7 14 -5
v -6 14 -5
v 6 14 -5
v 7 14 -5
v -9 14 -7
v 9 14 -7
v -7 15 5
v 7 15 5
v -7 15 4
v 7 15 4
v -7 15 2
v -6 15 2
v 6 15 2
v 7 15 2
v -7 15 1
v -6 15 1
v 6 15 1
v 7 15 1
v -7 15 -4
v -6 15 -4
v 6 15 -4
v 7 15 -4
v -7 15 -5
v -6 15 -5
v 6 15 -5
v 7 15 -5
v -7 16 1
v -6 16 1
v 6 16 1
v 7 16 1
v -7 16 -1
v -6 16 -1
v 6 16 -1
v 7 16 -1
v -7 16 -3
v -6 16 -3
v 6 16 -3
v 7 16 -3
v -7 16 -4
v -6 16 -4
v 6 16 -4
v 7 16 -4
v -7 18 -1
v 7 18 -1
v -7 18 -3
v 7 18 -3

# faces
f 3/6/1 2/6/1 1/6/1
f 5/6/1 3/6/1 1/6/1
f 5/6/1 4/6/1 3/6/1
f 6/6/1 4/6/1 5/6/1
f 7/6/1 5/6/1 1/6/1
f 8/6/1 5/6/1 7/6/1
f 12/6/1 10/6/1 9/6/1
f 13/2/1 11/2/1 10/2/1
f 13/6/1 10/6/1 12/6/1
f 14/2/1 11/2/1 13/2/1
f 15/2/1 11/2/1 14/2/1
f 16/2/1 11/2/1 15/2/1
f 18/2/1 11/2/1 16/2/1
f 21/2/1 18/2/1 17/2/1
f 22/6/1 20/6/1 19/6/1
f 23/2/1 21/2/1 20/2/1
f 23/6/1 20/6/1 22/6/1
f 24/2/1 23/2/1 22/2/1
f 25/2/1 11/2/1 18/2/1
f 25/2/1 23/2/1 24/2/1
f 25/2/1 18/2/1 21/2/1
f 25/2/1 21/2/1 23/2/1
f 28/2/1 27/2/1 26/2/1
f 29/2/1 27/2/1 28/2/1
f 32/3/1 31/3/1 30/3/1
f 33/3/1 31/3/1 32/3/1
f 35/2/1 34/2/1 33/2/1
f 36/2/1 34/2/1 35/2/1
f 39/2/1 38/2/1 37/2/1
f 40/2/1 38/2/1 39/2/1
f 43/3/1 42/3/1 41/3/1
f 44/3/1 42/3/1 43/3/1
f 49/3/1 46/3/1 45/3/1
f 50/3/1 46/3/1 49/3/1
f 51/6/1 48/6/1 47/6/1
f 52/6/1 48/6/1 51/6/1
f 53/6/1 48/6/1 52/6/1
f 54/6/1 48/6/1 53/6/1
f 55/6/1 53/6/1 52/6/1
f 56/6/1 53/6/1 55/6/1
f 57/6/1 53/6/1 56/6/1
f 58/6/1 53/6/1 57/6/1
f 59/6/1 57/6/1 56/6/1
f 60/6/1 57/6/1 59/6/1
f 63/2/1 62/2/1 61/2/1
f 64/2/1 62/2/1 63/2/1
f 66/2/1 65/2/1 64/2/1
f 67/2/1 65/2/1 66/2/1
f 68/2/1 65/2/1 67/2/1
f 69/2/1 65/2/1 68/2/1
f 72/2/1 71/2/1 70/2/1
f 73/2/1 71/2/1 72/2/1
f 76/2/1 75/2/1 74/2/1
f 77/2/1 75/2/1 76/2/1
f 80/2/1 79/2/1 78/2/1
f 81/2/1 79/2/1 80/2/1
f 84/2/1 83/2/1 82/2/1
f 85/2/1 83/2/1 84/2/1
f 88/6/1 87/6/1 86/6/1
f 89/6/1 87/6/1 88/6/1
f 90/6/1 87/6/1 89/6/1
f 91/6/1 87/6/1 90/6/1
f 92/6/1 90/6/1 89/6/1
f 93/6/1 90/6/1 92/6/1
f 94/6/1 90/6/1 93/6/1
f 95/6/1 90/6/1 94/6/1
f 96/6/1 94/6/1 93/6/1
f 97/6/1 94/6/1 96/6/1
f 98/6/2 99/6/2 100/6/2
f 100/6/2 99/6/2 101/6/2
f 101/6/2 99/6/2 102/6/2
f 102/6/2 99/6/2 103/6/2
f 101/6/2 102/6/2 104/6/2
f 104/6/2 102/6/2 105/6/2
f 105/6/2 102/6/2 106/6/2
f 106/6/2 102/6/2 107/6/2
f 105/6/2 106/6/2 108/6/2
f 108/6/2 106/6/2 109/6/2
f 110/2/2 111/2/2 112/2/2
f 112/2/2 111/2/2 113/2/2
f 114/2/2 115/2/2 116/2/2
f 116/2/2 115/2/2 117/2/2
f 118/2/2 119/2/2 120/2/2
f 120/2/2 119/2/2 121/2/2
f 122/2/2 123/2/2 124/2/2
f 124/2/2 123/2/2 125/2/2
f 126/2/2 127/2/2 128/2/2
f 128/2/2 127/2/2 129/2/2
f 129/2/2 130/2/2 131/2/2
f 131/2/2 130/2/2 132/2/2
f 132/2/2 130/2/2 133/2/2
f 133/2/2 130/2/2 134/2/2
f 135/3/2 136/3/2 139/3/2
f 139/3/2 136/3/2 140/3/2
f 137/6/2 138/6/2 141/6/2
f 141/6/2 138/6/2 142/6/2
f 142/6/2 138/6/2 143/6/2
f 143/6/2 138/6/2 144/6/2
f 142/6/2 143/6/2 145/6/2
f 145/6/2 143/6/2 146/6/2
f 146/6/2 143/6/2 147/6/2
f 147/6/2 143/6/2 148/6/2
f 146/6/2 147/6/2 149/6/2
f 149/6/2 147/6/2 150/6/2
f 151/2/2 152/2/2 153/2/2
f 153/2/2 152/2/2 154/2/2
f 155/3/2 156/3/2 157/3/2
f 157/3/2 156/3/2 158/3/2
f 159/2/2 160/2/2 161/2/2
f 161/2/2 160/2/2 162/2/2
f 163/3/2 164/3/2 165/3/2
f 165/3/2 164/3/2 166/3/2
f 166/2/2 167/2/2 168/2/2
f 168/2/2 167/2/2 169/2/2
f 170/6/2 171/6/2 173/6/2
f 171/2/2 172/2/2 174/2/2
f 173/6/2 171/6/2 174/6/2
f 174/2/2 172/2/2 175/2/2
f 175/2/2 172/2/2 176/2/2
f 176/2/2 172/2/2 177/2/2
f 177/2/2 172/2/2 179/2/2
f 178/2/2 179/2/2 182/2/2
f 180/6/2 181/6/2 183/6/2
f 181/2/2 182/2/2 184/2/2
f 183/6/2 181/6/2 184/6/2
f 183/2/2 184/2/2 185/2/2
f 179/2/2 172/2/2 186/2/2
f 185/2/2 184/2/2 186/2/2
f 182/2/2 179/2/2 186/2/2
f 184/2/2 182/2/2 186/2/2
f 187/6/2 188/6/2 189/6/2
f 187/6/2 189/6/2 191/6/2
f 189/6/2 190/6/2 191/6/2
f 191/6/2 190/6/2 192/6/2
f 187/6/2 191/6/2 193/6/2
f 193/6/2 191/6/2 194/6/2
f 197/2/3 196/2/3 195/2/3
f 198/2/3 196/2/3 197/2/3
f 201/2/3 200/2/3 199/2/3
f 202/2/3 200/2/3 201/2/3
f 206/2/3 205/2/3 204/2/3
f 207/2/3 205/2/3 206/2/3
f 208/2/3 205/2/3 207/2/3
f 209/2/3 205/2/3 208/2/3
f 210/6/3 207/6/3 206/6/3
f 211/2/3 208/2/3 207/2/3
f 211/6/3 207/6/3 210/6/3
f 212/2/3 211/2/3 210/2/3
f 213/2/3 208/2/3 211/2/3
f 213/2/3 211/2/3 212/2/3
f 214/6/3 213/6/3 212/6/3
f 215/2/3 208/2/3 213/2/3
f 215/6/3 213/6/3 214/6/3
f 216/2/3 215/2/3 214/2/3
f 217/2/3 208/2/3 215/2/3
f 217/2/3 215/2/3 216/2/3
f 218/6/3 217/6/3 216/6/3
f 219/2/3 208/2/3 217/2/3
f 219/6/3 217/6/3 218/6/3
f 220/2/3 208/2/3 219/2/3
f 222/2/3 219/2/3 218/2/3
f 222/2/3 221/2/3 220/2/3
f 222/2/3 220/2/3 219/2/3
f 223/2/3 221/2/3 222/2/3
f 225/2/3 203/2/3 202/2/3
f 226/2/3 203/2/3 225/2/3
f 227/2/3 225/2/3 224/2/3
f 228/2/3 225/2/3 227/2/3
f 233/2/3 230/2/3 229/2/3
f 234/2/3 230/2/3 233/2/3
f 235/3/3 232/3/3 231/3/3
f 236/3/3 232/3/3 235/3/3
f 238/3/3 237/3/3 236/3/3
f 238/2/3 236/2/3 235/2/3
f 239/3/3 237/3/3 238/3/3
f 242/2/3 238/2/3 235/2/3
f 242/2/3 239/2/3 238/2/3
f 243/2/3 242/2/3 241/2/3
f 244/2/3 242/2/3 243/2/3
f 245/2/3 242/2/3 244/2/3
f 246/2/3 239/2/3 242/2/3
f 246/2/3 242/2/3 245/2/3
f 247/2/3 243/2/3 241/2/3
f 249/2/3 245/2/3 244/2/3
f 250/2/3 247/2/3 241/2/3
f 251/2/3 249/2/3 248/2/3
f 251/2/3 245/2/3 249/2/3
f 253/2/3 250/2/3 241/2/3
f 254/2/3 253/2/3 241/2/3
f 255/2/3 254/2/3 241/2/3
f 256/2/3 252/2/3 251/2/3
f 256/2/3 251/2/3 248/2/3
f 257/2/3 252/2/3 256/2/3
f 258/2/3 255/2/3 241/2/3
f 259/2/3 256/2/3 248/2/3
f 260/2/3 256/2/3 259/2/3
f 261/2/3 258/2/3 241/2/3
f 262/2/3 256/2/3 260/2/3
f 263/2/3 256/2/3 262/2/3
f 264/2/3 239/2/3 246/2/3
f 265/2/3 263/2/3 262/2/3
f 265/2/3 264/2/3 263/2/3
f 265/2/3 262/2/3 261/2/3
f 265/2/3 261/2/3 241/2/3
f 266/2/3 264/2/3 265/2/3
f 267/2/3 239/2/3 264/2/3
f 267/2/3 264/2/3 266/2/3
f 268/3/3 240/3/3 239/3/3
f 268/2/3 239/2/3 267/2/3
f 269/3/3 240/3/3 268/3/3
f 272/2/3 267/2/3 266/2/3
f 273/3/3 268/3/3 267/3/3
f 273/2/3 267/2/3 272/2/3
f 274/3/3 268/3/3 273/3/3
f 275/2/3 271/2/3 270/2/3
f 276/2/3 271/2/3 275/2/3
f 277/3/3 273/3/3 272/3/3
f 278/3/3 273/3/3 277/3/3
f 282/6/3 280/6/3 279/6/3
f 283/6/3 280/6/3 282/6/3
f 284/6/3 280/6/3 283/6/3
f 285/6/3 280/6/3 284/6/3
f 286/6/3 280/6/3 285/6/3
f 287/6/3 280/6/3 286/6/3
f 288/6/3 280/6/3 287/6/3
f 289/6/3 280/6/3 288/6/3
f 292/6/3 282/6/3 281/6/3
f 292/6/3 283/6/3 282/6/3
f 293/4/3 284/4/3 283/4/3
f 293/6/3 283/6/3 292/6/3
f 294/5/3 285/5/3 284/5/3
f 294/4/3 284/4/3 293/4/3
f 295/4/3 286/4/3 285/4/3
f 295/5/3 285/5/3 294/5/3
f 296/4/3 286/4/3 295/4/3
f 297/5/3 287/5/3 286/5/3
f 297/4/3 286/4/3 296/4/3
f 298/4/3 288/4/3 287/4/3
f 298/5/3 287/5/3 297/5/3
f 299/4/3 288/4/3 298/4/3
f 300/6/3 290/6/3 289/6/3
f 300/4/3 288/4/3 299/4/3
f 300/6/3 289/6/3 288/6/3
f 301/6/3 290/6/3 300/6/3
f 302/6/3 292/6/3 281/6/3
f 303/4/3 293/4/3 292/4/3
f 303/6/3 292/6/3 302/6/3
f 304/5/3 294/5/3 293/5/3
f 304/4/3 293/4/3 303/4/3
f 305/4/3 296/4/3 295/4/3
f 305/5/3 294/5/3 304/5/3
f 305/4/3 295/4/3 294/4/3
f 306/5/3 297/5/3 296/5/3
f 306/4/3 296/4/3 305/4/3
f 307/4/3 299/4/3 298/4/3
f 307/5/3 297/5/3 306/5/3
f 307/4/3 298/4/3 297/4/3
f 308/5/3 300/5/3 299/5/3
f 308/4/3 299/4/3 307/4/3
f 309/4/3 301/4/3 300/4/3
f 309/5/3 300/5/3 308/5/3
f 310/2/3 291/2/3 290/2/3
f 310/6/3 290/6/3 301/6/3
f 311/2/3 291/2/3 310/2/3
f 313/4/3 306/4/3 305/4/3
f 313/4/3 309/4/3 308/4/3
f 313/4/3 308/4/3 307/4/3
f 313/4/3 307/4/3 306/4/3
f 313/4/3 305/4/3 304/4/3
f 313/4/3 304/4/3 303/4/3
f 314/4/3 309/4/3 313/4/3
f 315/4/3 309/4/3 314/4/3
f 316/4/3 309/4/3 315/4/3
f 317/4/3 309/4/3 316/4/3
f 318/4/3 309/4/3 317/4/3
f 319/6/3 310/6/3 301/6/3
f 320/2/3 312/2/3 311/2/3
f 321/2/3 312/2/3 320/2/3
f 322/5/3 314/5/3 313/5/3
f 323/4/3 315/4/3 314/4/3
f 323/5/3 314/5/3 322/5/3
f 324/5/3 316/5/3 315/5/3
f 324/4/3 315/4/3 323/4/3
f 325/4/3 317/4/3 316/4/3
f 325/5/3 316/5/3 324/5/3
f 326/5/3 318/5/3 317/5/3
f 326/4/3 317/4/3 325/4/3
f 327/4/3 309/4/3 318/4/3
f 327/5/3 318/5/3 326/5/3
f 328/4/3 301/4/3 309/4/3
f 328/4/3 309/4/3 327/4/3
f 328/6/3 319/6/3 301/6/3
f 329/6/3 327/6/3 326/6/3
f 329/6/3 326/6/3 325/6/3
f 329/6/3 328/6/3 327/6/3
f 329/6/3 325/6/3 324/6/3
f 329/6/3 324/6/3 323/6/3
f 329/6/3 323/6/3 322/6/3
f 330/6/3 319/6/3 328/6/3
f 330/6/3 328/6/3 329/6/3
f 333/1/3 332/1/3 331/1/3
f 334/1/3 332/1/3 333/1/3
f 336/1/3 332/1/3 334/1/3
f 337/1/3 336/1/3 335/1/3
f 338/1/3 332/1/3 336/1/3
f 338/1/3 336/1/3 337/1/3
f 341/6/3 340/6/3 339/6/3
f 342/6/3 340/6/3 341/6/3
f 343/6/3 340/6/3 342/6/3
f 344/6/3 340/6/3 343/6/3
f 345/6/3 340/6/3 344/6/3
f 346/6/3 340/6/3 345/6/3
f 347/6/3 340/6/3 346/6/3
f 348/5/3 342/5/3 341/5/3
f 349/4/3 343/4/3 342/4/3
f 349/5/3 342/5/3 348/5/3
f 350/5/3 344/5/3 343/5/3
f 350/4/3 343/4/3 349/4/3
f 351/4/3 345/4/3 344/4/3
f 351/5/3 344/5/3 350/5/3
f 352/5/3 346/5/3 345/5/3
f 352/4/3 345/4/3 351/4/3
f 353/4/3 347/4/3 346/4/3
f 353/5/3 346/5/3 352/5/3
f 354/6/3 340/6/3 347/6/3
f 358/4/3 349/4/3 348/4/3
f 358/4/3 350/4/3 349/4/3
f 358/4/3 353/4/3 352/4/3
f 358/4/3 352/4/3 351/4/3
f 358/4/3 351/4/3 350/4/3
f 359/4/3 353/4/3 358/4/3
f 360/4/3 353/4/3 359/4/3
f 361/4/3 353/4/3 360/4/3
f 362/4/3 353/4/3 361/4/3
f 363/4/3 347/4/3 353/4/3
f 363/4/3 353/4/3 362/4/3
f 364/4/3 347/4/3 363/4/3
f 365/6/3 354/6/3 347/6/3
f 366/2/3 356/2/3 355/2/3
f 367/2/3 356/2/3 366/2/3
f 368/6/3 358/6/3 357/6/3
f 368/4/3 359/4/3 358/4/3
f 369/5/3 360/5/3 359/5/3
f 369/4/3 359/4/3 368/4/3
f 370/4/3 361/4/3 360/4/3
f 370/5/3 360/5/3 369/5/3
f 371/4/3 361/4/3 370/4/3
f 372/5/3 362/5/3 361/5/3
f 372/4/3 361/4/3 371/4/3
f 373/4/3 363/4/3 362/4/3
f 373/5/3 362/5/3 372/5/3
f 374/4/3 363/4/3 373/4/3
f 375/5/3 364/5/3 363/5/3
f 375/4/3 363/4/3 374/4/3
f 376/4/3 347/4/3 364/4/3
f 376/5/3 364/5/3 375/5/3
f 377/6/3 365/6/3 347/6/3
f 377/4/3 347/4/3 376/4/3
f 378/6/3 368/6/3 357/6/3
f 378/6/3 369/6/3 368/6/3
f 379/6/3 369/6/3 378/6/3
f 380/4/3 370/4/3 369/4/3
f 380/6/3 369/6/3 379/6/3
f 381/5/3 371/5/3 370/5/3
f 381/4/3 370/4/3 380/4/3
f 382/4/3 372/4/3 371/4/3
f 382/5/3 371/5/3 381/5/3
f 382/4/3 373/4/3 372/4/3
f 383/5/3 374/5/3 373/5/3
f 383/4/3 373/4/3 382/4/3
f 384/4/3 375/4/3 374/4/3
f 384/5/3 374/5/3 383/5/3
f 384/4/3 376/4/3 375/4/3
f 385/6/3 377/6/3 376/6/3
f 385/4/3 376/4/3 384/4/3
f 386/6/3 365/6/3 377/6/3
f 386/6/3 377/6/3 385/6/3
f 387/2/3 366/2/3 365/2/3
f 387/6/3 365/6/3 386/6/3
f 388/2/3 366/2/3 387/2/3
f 389/6/3 383/6/3 382/6/3
f 389/6/3 380/6/3 379/6/3
f 389/6/3 386/6/3 385/6/3
f 389/6/3 382/6/3 381/6/3
f 389/6/3 381/6/3 380/6/3
f 389/6/3 384/6/3 383/6/3
f 389/6/3 385/6/3 384/6/3
f 390/6/3 386/6/3 389/6/3
f 393/6/3 392/6/3 391/6/3
f 394/6/3 392/6/3 393/6/3
f 397/6/3 396/6/3 395/6/3
f 398/6/3 396/6/3 397/6/3
f 401/6/3 400/6/3 399/6/3
f 402/6/3 400/6/3 401/6/3
f 405/6/3 404/6/3 403/6/3
f 406/6/3 404/6/3 405/6/3
f 409/6/3 408/6/3 407/6/3
f 410/6/3 408/6/3 409/6/3
f 412/6/3 408/6/3 410/6/3
f 413/6/3 412/6/3 411/6/3
f 414/6/3 408/6/3 412/6/3
f 414/6/3 412/6/3 413/6/3
f 415/3/4 416/3/4 417/3/4
f 417/3/4 416/3/4 418/3/4
f 419/6/4 420/6/4 423/6/4
f 423/6/4 420/6/4 424/6/4
f 421/6/4 422/6/4 425/6/4
f 425/6/4 422/6/4 426/6/4
f 427/6/4 428/6/4 431/6/4
f 431/6/4 428/6/4 432/6/4
f 429/6/4 430/6/4 433/6/4
f 433/6/4 430/6/4 434/6/4
f 435/6/4 436/6/4 437/6/4
f 437/6/4 436/6/4 438/6/4
f 439/6/4 440/6/4 441/6/4
f 441/6/4 440/6/4 442/6/4
f 443/6/4 444/6/4 445/6/4
f 445/6/4 444/6/4 446/6/4
f 446/6/4 444/6/4 448/6/4
f 447/6/4 448/6/4 449/6/4
f 448/6/4 444/6/4 450/6/4
f 449/6/4 448/6/4 450/6/4
f 451/6/4 452/6/4 453/6/4
f 453/6/4 452/6/4 454/6/4
f 455/6/4 456/6/4 457/6/4
f 457/6/4 456/6/4 458/6/4
f 459/6/4 460/6/4 461/6/4
f 461/6/4 460/6/4 462/6/4
f 463/6/4 464/6/4 465/6/4
f 465/6/4 464/6/4 466/6/4
f 467/2/4 468/2/4 469/2/4
f 467/2/4 469/2/4 471/2/4
f 469/2/4 470/2/4 471/2/4
f 471/2/4 470/2/4 472/2/4
f 467/2/4 471/2/4 473/2/4
f 473/2/4 471/2/4 474/2/4
f 478/2/5 476/2/5 475/2/5
f 479/2/5 476/2/5 478/2/5
f 482/2/5 478/2/5 477/2/5
f 482/2/5 480/2/5 479/2/5
f 482/2/5 479/2/5 478/2/5
f 483/2/5 480/2/5 482/2/5
f 486/2/5 482/2/5 481/2/5
f 486/2/5 484/2/5 483/2/5
f 486/2/5 483/2/5 482/2/5
f 487/2/5 484/2/5 486/2/5
f 489/6/5 486/6/5 485/6/5
f 490/2/5 487/2/5 486/2/5
f 490/6/5 486/6/5 489/6/5
f 491/6/5 488/6/5 487/6/5
f 491/2/5 487/2/5 490/2/5
f 492/6/5 488/6/5 491/6/5
f 493/2/5 490/2/5 489/2/5
f 493/2/5 491/2/5 490/2/5
f 493/2/5 492/2/5 491/2/5
f 494/2/5 492/2/5 493/2/5
f 499/6/5 496/6/5 495/6/5
f 500/6/5 498/6/5 497/6/5
f 501/6/5 499/6/5 495/6/5
f 502/6/5 499/6/5 501/6/5
f 503/6/5 498/6/5 500/6/5
f 504/6/5 498/6/5 503/6/5
f 509/6/5 506/6/5 505/6/5
f 510/6/5 506/6/5 509/6/5
f 511/6/5 508/6/5 507/6/5
f 512/6/5 508/6/5 511/6/5
f 521/2/5 514/2/5 513/2/5
f 522/6/5 515/6/5 514/6/5
f 522/2/5 514/2/5 521/2/5
f 523/2/5 516/2/5 515/2/5
f 523/6/5 515/6/5 522/6/5
f 524/6/5 517/6/5 516/6/5
f 524/2/5 516/2/5 523/2/5
f 525/2/5 518/2/5 517/2/5
f 525/6/5 517/6/5 524/6/5
f 526/6/5 519/6/5 518/6/5
f 526/2/5 518/2/5 525/2/5
f 527/2/5 520/2/5 519/2/5
f 527/6/5 519/6/5 526/6/5
f 528/2/5 520/2/5 527/2/5
f 535/3/5 530/3/5 529/3/5
f 536/2/5 531/2/5 530/2/5
f 536/3/5 530/3/5 535/3/5
f 537/2/5 531/2/5 536/2/5
f 538/2/5 533/2/5 532/2/5
f 539/3/5 534/3/5 533/3/5
f 539/2/5 533/2/5 538/2/5
f 540/3/5 534/3/5 539/3/5
f 543/2/5 542/2/5 541/2/5
f 544/2/5 542/2/5 543/2/5
f 547/6/5 546/6/5 545/6/5
f 548/6/5 546/6/5 547/6/5
f 549/2/6 550/2/6 552/2/6
f 552/2/6 550/2/6 553/2/6
f 551/2/6 552/2/6 556/2/6
f 553/2/6 554/2/6 557/2/6
f 555/2/6 556/2/6 559/2/6
f 556/2/6 552/2/6 560/2/6
f 559/2/6 556/2/6 560/2/6
f 560/2/6 552/2/6 561/2/6
f 561/2/6 552/2/6 562/2/6
f 557/2/6 558/2/6 563/2/6
f 553/2/6 557/2/6 563/2/6
f 563/2/6 558/2/6 564/2/6
f 564/2/6 558/2/6 565/2/6
f 565/2/6 558/2/6 566/2/6
f 567/2/6 568/2/6 569/2/6
f 569/2/6 568/2/6 570/2/6
f 571/2/6 572/2/6 573/2/6
f 573/2/6 572/2/6 574/2/6
f 575/2/6 576/2/6 579/2/6
f 579/2/6 576/2/6 580/2/6
f 577/2/6 578/2/6 581/2/6
f 581/2/6 578/2/6 582/2/6
f 583/2/6 584/2/6 587/2/6
f 587/2/6 584/2/6 588/2/6
f 585/2/6 586/2/6 589/2/6
f 589/2/6 586/2/6 590/2/6
f 591/6/6 592/6/6 595/6/6
f 595/6/6 592/6/6 596/6/6
f 593/6/6 594/6/6 597/6/6
f 597/6/6 594/6/6 598/6/6
f 599/2/6 600/2/6 603/2/6
f 603/2/6 600/2/6 604/2/6
f 601/6/6 602/6/6 607/6/6
f 605/6/6 606/6/6 608/6/6
f 601/6/6 607/6/6 609/6/6
f 609/6/6 607/6/6 610/6/6
f 608/6/6 606/6/6 611/6/6
f 611/6/6 606/6/6 612/6/6
f 613/3/6 614/3/6 618/3/6
f 618/3/6 614/3/6 619/3/6
f 615/3/6 616/3/6 620/3/6
f 620/3/6 616/3/6 621/3/6
f 617/2/6 618/2/6 623/2/6
f 623/2/6 618/2/6 624/2/6
f 621/2/6 622/2/6 625/2/6
f 625/2/6 622/2/6 626/2/6
f 627/3/6 628/3/6 632/3/6
f 632/3/6 628/3/6 633/3/6
f 629/3/6 630/3/6 634/3/6
f 634/3/6 630/3/6 635/3/6
f 632/2/6 633/2/6 637/2/6
f 635/2/6 636/2/6 637/2/6
f 634/2/6 635/2/6 637/2/6
f 633/2/6 634/2/6 637/2/6
f 631/2/6 632/2/6 637/2/6
f 637/2/6 636/2/6 638/2/6
f 638/2/6 636/2/6 639/2/6
f 639/2/6 636/2/6 640/2/6
f 631/2/6 637/2/6 641/2/6
f 638/2/6 639/2/6 642/2/6
f 642/2/6 639/2/6 643/2/6
f 640/2/6 636/2/6 644/2/6
f 642/2/6 643/2/6 645/2/6
f 643/2/6 644/2/6 645/2/6
f 631/2/6 641/2/6 645/2/6
f 641/2/6 642/2/6 645/2/6
f 644/2/6 636/2/6 646/2/6
f 645/2/6 644/2/6 646/2/6
f 647/3/6 648/3/6 649/3/6
f 649/3/6 648/3/6 650/3/6
f 651/6/6 652/6/6 655/6/6
f 655/6/6 652/6/6 656/6/6
f 653/6/6 654/6/6 657/6/6
f 657/6/6 654/6/6 658/6/6
f 659/6/6 660/6/6 663/6/6
f 663/6/6 660/6/6 664/6/6
f 661/6/6 662/6/6 665/6/6
f 665/6/6 662/6/6 666/6/6
f 667/6/6 668/6/6 671/6/6
f 671/6/6 668/6/6 672/6/6
f 669/6/6 670/6/6 673/6/6
f 673/6/6 670/6/6 674/6/6
f 675/6/6 676/6/6 679/6/6
f 679/6/6 676/6/6 680/6/6
f 677/6/6 678/6/6 681/6/6
f 681/6/6 678/6/6 682/6/6
f 683/6/6 684/6/6 685/6/6
f 685/6/6 684/6/6 686/6/6
