# MagicaVoxel @ ephtracy

# material
mtllib SC_RobotFriend.mtl
usemtl palette

# normals
vn -1 0 0
vn 1 0 0
vn 0 0 1
vn 0 0 -1
vn 0 -1 0
vn 0 1 0

# texcoords
vt 0.240234 0.5
vt 0.400391 0.5
vt 0.650391 0.5
vt 0.958984 0.5
vt 0.974609 0.5
vt 0.986328 0.5
vt 0.994141 0.5

# verts
v -3.5 7 2.5
v -3.5 7 -3.5
v -3.5 8 1.5
v -3.5 8 -2.5
v -3.5 9 1.5
v -3.5 9 -2.5
v -3.5 10 2.5
v -3.5 10 -3.5
v -2.5 3 2.5
v -2.5 3 -2.5
v -2.5 4 2.5
v -2.5 4 -2.5
v -2.5 6 2.5
v -2.5 6 -2.5
v -2.5 7 3.5
v -2.5 7 2.5
v -2.5 7 -2.5
v -2.5 8 3.5
v -2.5 8 2.5
v -2.5 8 1.5
v -2.5 8 -2.5
v -2.5 9 1.5
v -2.5 9 -2.5
v -2.5 10 2.5
v -2.5 10 -2.5
v -2.5 11 3.5
v -2.5 11 2.5
v -2.5 11 -2.5
v -2.5 12 2.5
v -2.5 12 -2.5
v -1.5 1 1.5
v -1.5 1 -1.5
v -1.5 2 1.5
v -1.5 2 -1.5
v -1.5 3 1.5
v -1.5 3 -1.5
v -1.5 4 1.5
v -1.5 4 0.5
v -1.5 4 -0.5
v -1.5 4 -1.5
v -1.5 5 0.5
v -1.5 5 -0.5
v -1.5 6 1.5
v -1.5 6 -1.5
v -1.5 12 1.5
v -1.5 12 -1.5
v -1.5 13 1.5
v -1.5 13 -1.5
v -0.5 0 0.5
v -0.5 0 -0.5
v -0.5 1 0.5
v -0.5 1 -0.5
v -0.5 4 0.5
v -0.5 4 -0.5
v -0.5 5 0.5
v -0.5 5 -0.5
v -0.5 13 0.5
v -0.5 13 -0.5
v -0.5 18 0.5
v -0.5 18 -0.5
v -0.5 19 0.5
v -0.5 19 -0.5
v 0.5 4 1.5
v 0.5 4 0.5
v 0.5 4 -0.5
v 0.5 4 -1.5
v 0.5 5 1.5
v 0.5 5 0.5
v 0.5 5 -0.5
v 0.5 5 -1.5
v 2.5 8 -2.5
v 2.5 8 -3.5
v 2.5 9 -2.5
v 2.5 9 -3.5
v -2.5 8 -2.5
v -2.5 8 -3.5
v -2.5 9 -2.5
v -2.5 9 -3.5
v -0.5 4 1.5
v -0.5 4 0.5
v -0.5 4 -0.5
v -0.5 4 -1.5
v -0.5 5 1.5
v -0.5 5 0.5
v -0.5 5 -0.5
v -0.5 5 -1.5
v 0.5 0 0.5
v 0.5 0 -0.5
v 0.5 1 0.5
v 0.5 1 -0.5
v 0.5 4 0.5
v 0.5 4 -0.5
v 0.5 5 0.5
v 0.5 5 -0.5
v 0.5 13 0.5
v 0.5 13 -0.5
v 0.5 18 0.5
v 0.5 18 -0.5
v 0.5 19 0.5
v 0.5 19 -0.5
v 1.5 1 1.5
v 1.5 1 -1.5
v 1.5 2 1.5
v 1.5 2 -1.5
v 1.5 3 1.5
v 1.5 3 -1.5
v 1.5 4 1.5
v 1.5 4 0.5
v 1.5 4 -0.5
v 1.5 4 -1.5
v 1.5 5 0.5
v 1.5 5 -0.5
v 1.5 6 1.5
v 1.5 6 -1.5
v 1.5 12 1.5
v 1.5 12 -1.5
v 1.5 13 1.5
v 1.5 13 -1.5
v 2.5 3 2.5
v 2.5 3 -2.5
v 2.5 4 2.5
v 2.5 4 -2.5
v 2.5 6 2.5
v 2.5 6 -2.5
v 2.5 7 3.5
v 2.5 7 2.5
v 2.5 7 -2.5
v 2.5 8 3.5
v 2.5 8 2.5
v 2.5 8 1.5
v 2.5 8 -2.5
v 2.5 9 1.5
v 2.5 9 -2.5
v 2.5 10 2.5
v 2.5 10 -2.5
v 2.5 11 3.5
v 2.5 11 2.5
v 2.5 11 -2.5
v 2.5 12 2.5
v 2.5 12 -2.5
v 3.5 7 2.5
v 3.5 7 -3.5
v 3.5 8 1.5
v 3.5 8 -2.5
v 3.5 9 1.5
v 3.5 9 -2.5
v 3.5 10 2.5
v 3.5 10 -3.5
v -2.5 7 3.5
v -2.5 8 3.5
v -2.5 11 3.5
v -1.5 7 3.5
v -1.5 8 3.5
v -1.5 9 3.5
v -1.5 10 3.5
v -0.5 8 3.5
v -0.5 9 3.5
v -0.5 10 3.5
v 0.5 8 3.5
v 0.5 9 3.5
v 0.5 10 3.5
v 1.5 7 3.5
v 1.5 8 3.5
v 1.5 9 3.5
v 1.5 10 3.5
v 2.5 7 3.5
v 2.5 8 3.5
v 2.5 11 3.5
v -3.5 7 2.5
v -3.5 10 2.5
v -2.5 3 2.5
v -2.5 4 2.5
v -2.5 6 2.5
v -2.5 7 2.5
v -2.5 8 2.5
v -2.5 10 2.5
v -2.5 11 2.5
v -2.5 12 2.5
v -1.5 7 2.5
v 1.5 7 2.5
v 2.5 3 2.5
v 2.5 4 2.5
v 2.5 6 2.5
v 2.5 7 2.5
v 2.5 8 2.5
v 2.5 10 2.5
v 2.5 11 2.5
v 2.5 12 2.5
v 3.5 7 2.5
v 3.5 10 2.5
v -1.5 1 1.5
v -1.5 2 1.5
v -1.5 3 1.5
v -1.5 4 1.5
v -1.5 6 1.5
v -1.5 12 1.5
v -1.5 13 1.5
v -0.5 4 1.5
v -0.5 5 1.5
v 0.5 4 1.5
v 0.5 5 1.5
v 1.5 1 1.5
v 1.5 2 1.5
v 1.5 3 1.5
v 1.5 4 1.5
v 1.5 6 1.5
v 1.5 12 1.5
v 1.5 13 1.5
v -0.5 0 0.5
v -0.5 1 0.5
v -0.5 4 0.5
v -0.5 5 0.5
v -0.5 13 0.5
v -0.5 18 0.5
v -0.5 19 0.5
v 0.5 0 0.5
v 0.5 1 0.5
v 0.5 4 0.5
v 0.5 5 0.5
v 0.5 13 0.5
v 0.5 18 0.5
v 0.5 19 0.5
v -1.5 4 -0.5
v -1.5 5 -0.5
v -0.5 4 -0.5
v -0.5 5 -0.5
v 0.5 4 -0.5
v 0.5 5 -0.5
v 1.5 4 -0.5
v 1.5 5 -0.5
v -3.5 8 -2.5
v -3.5 9 -2.5
v -2.5 8 -2.5
v -2.5 9 -2.5
v 2.5 8 -2.5
v 2.5 9 -2.5
v 3.5 8 -2.5
v 3.5 9 -2.5
v -3.5 8 1.5
v -3.5 9 1.5
v -2.5 8 1.5
v -2.5 9 1.5
v 2.5 8 1.5
v 2.5 9 1.5
v 3.5 8 1.5
v 3.5 9 1.5
v -1.5 4 0.5
v -1.5 5 0.5
v -0.5 4 0.5
v -0.5 5 0.5
v 0.5 4 0.5
v 0.5 5 0.5
v 1.5 4 0.5
v 1.5 5 0.5
v -0.5 0 -0.5
v -0.5 1 -0.5
v -0.5 4 -0.5
v -0.5 5 -0.5
v -0.5 13 -0.5
v -0.5 18 -0.5
v -0.5 19 -0.5
v 0.5 0 -0.5
v 0.5 1 -0.5
v 0.5 4 -0.5
v 0.5 5 -0.5
v 0.5 13 -0.5
v 0.5 18 -0.5
v 0.5 19 -0.5
v -1.5 1 -1.5
v -1.5 2 -1.5
v -1.5 3 -1.5
v -1.5 4 -1.5
v -1.5 6 -1.5
v -1.5 12 -1.5
v -1.5 13 -1.5
v -0.5 4 -1.5
v -0.5 5 -1.5
v 0.5 4 -1.5
v 0.5 5 -1.5
v 1.5 1 -1.5
v 1.5 2 -1.5
v 1.5 3 -1.5
v 1.5 4 -1.5
v 1.5 6 -1.5
v 1.5 12 -1.5
v 1.5 13 -1.5
v -2.5 3 -2.5
v -2.5 4 -2.5
v -2.5 6 -2.5
v -2.5 7 -2.5
v -2.5 8 -2.5
v -2.5 9 -2.5
v -2.5 10 -2.5
v -2.5 11 -2.5
v -2.5 12 -2.5
v 2.5 3 -2.5
v 2.5 4 -2.5
v 2.5 6 -2.5
v 2.5 7 -2.5
v 2.5 8 -2.5
v 2.5 9 -2.5
v 2.5 10 -2.5
v 2.5 11 -2.5
v 2.5 12 -2.5
v -3.5 7 -3.5
v -3.5 10 -3.5
v -2.5 8 -3.5
v -2.5 9 -3.5
v 2.5 8 -3.5
v 2.5 9 -3.5
v 3.5 7 -3.5
v 3.5 10 -3.5
v -0.5 0 0.5
v 0.5 0 0.5
v -0.5 0 -0.5
v 0.5 0 -0.5
v -1.5 1 1.5
v 1.5 1 1.5
v -0.5 1 0.5
v 0.5 1 0.5
v -0.5 1 -0.5
v 0.5 1 -0.5
v -1.5 1 -1.5
v 1.5 1 -1.5
v -2.5 3 2.5
v 2.5 3 2.5
v -1.5 3 1.5
v 1.5 3 1.5
v -1.5 3 -1.5
v 1.5 3 -1.5
v -2.5 3 -2.5
v 2.5 3 -2.5
v -0.5 5 1.5
v 0.5 5 1.5
v -1.5 5 0.5
v -0.5 5 0.5
v 0.5 5 0.5
v 1.5 5 0.5
v -1.5 5 -0.5
v -0.5 5 -0.5
v 0.5 5 -0.5
v 1.5 5 -0.5
v -0.5 5 -1.5
v 0.5 5 -1.5
v -2.5 6 2.5
v 2.5 6 2.5
v -1.5 6 1.5
v 1.5 6 1.5
v -1.5 6 -1.5
v 1.5 6 -1.5
v -2.5 6 -2.5
v 2.5 6 -2.5
v -2.5 7 3.5
v -1.5 7 3.5
v 1.5 7 3.5
v 2.5 7 3.5
v -3.5 7 2.5
v -2.5 7 2.5
v -1.5 7 2.5
v 1.5 7 2.5
v 2.5 7 2.5
v 3.5 7 2.5
v -2.5 7 -2.5
v 2.5 7 -2.5
v -3.5 7 -3.5
v 3.5 7 -3.5
v -3.5 9 1.5
v -2.5 9 1.5
v 2.5 9 1.5
v 3.5 9 1.5
v -3.5 9 -2.5
v -2.5 9 -2.5
v 2.5 9 -2.5
v 3.5 9 -2.5
v -2.5 9 -3.5
v 2.5 9 -3.5
v -2.5 4 2.5
v 2.5 4 2.5
v -1.5 4 1.5
v -0.5 4 1.5
v 0.5 4 1.5
v 1.5 4 1.5
v -1.5 4 0.5
v -0.5 4 0.5
v 0.5 4 0.5
v 1.5 4 0.5
v -1.5 4 -0.5
v -0.5 4 -0.5
v 0.5 4 -0.5
v 1.5 4 -0.5
v -1.5 4 -1.5
v -0.5 4 -1.5
v 0.5 4 -1.5
v 1.5 4 -1.5
v -2.5 4 -2.5
v 2.5 4 -2.5
v -3.5 8 1.5
v -2.5 8 1.5
v 2.5 8 1.5
v 3.5 8 1.5
v -3.5 8 -2.5
v -2.5 8 -2.5
v 2.5 8 -2.5
v 3.5 8 -2.5
v -2.5 8 -3.5
v 2.5 8 -3.5
v -3.5 10 2.5
v -2.5 10 2.5
v 2.5 10 2.5
v 3.5 10 2.5
v -2.5 10 -2.5
v 2.5 10 -2.5
v -3.5 10 -3.5
v 3.5 10 -3.5
v -2.5 11 3.5
v 2.5 11 3.5
v -2.5 11 2.5
v 2.5 11 2.5
v -2.5 12 2.5
v 2.5 12 2.5
v -1.5 12 1.5
v 1.5 12 1.5
v -1.5 12 -1.5
v 1.5 12 -1.5
v -2.5 12 -2.5
v 2.5 12 -2.5
v -1.5 13 1.5
v 1.5 13 1.5
v -0.5 13 0.5
v 0.5 13 0.5
v -0.5 13 -0.5
v 0.5 13 -0.5
v -1.5 13 -1.5
v 1.5 13 -1.5
v -0.5 19 0.5
v 0.5 19 0.5
v -0.5 19 -0.5
v 0.5 19 -0.5

# faces
f 3/5/1 2/5/1 1/5/1
f 4/5/1 2/5/1 3/5/1
f 5/5/1 3/5/1 1/5/1
f 6/5/1 2/5/1 4/5/1
f 7/5/1 5/5/1 1/5/1
f 7/5/1 6/5/1 5/5/1
f 8/5/1 2/5/1 6/5/1
f 8/5/1 6/5/1 7/5/1
f 11/5/1 10/5/1 9/5/1
f 12/5/1 10/5/1 11/5/1
f 16/5/1 14/5/1 13/5/1
f 17/5/1 14/5/1 16/5/1
f 18/1/1 16/1/1 15/1/1
f 19/1/1 16/1/1 18/1/1
f 22/5/1 21/5/1 20/5/1
f 23/5/1 21/5/1 22/5/1
f 24/2/1 19/2/1 18/2/1
f 26/2/1 24/2/1 18/2/1
f 27/5/1 25/5/1 24/5/1
f 27/2/1 24/2/1 26/2/1
f 28/5/1 25/5/1 27/5/1
f 29/6/1 28/6/1 27/6/1
f 30/6/1 28/6/1 29/6/1
f 33/7/1 32/7/1 31/7/1
f 34/7/1 32/7/1 33/7/1
f 35/6/1 34/6/1 33/6/1
f 36/6/1 34/6/1 35/6/1
f 41/5/1 38/5/1 37/5/1
f 42/5/1 40/5/1 39/5/1
f 43/5/1 41/5/1 37/5/1
f 43/5/1 42/5/1 41/5/1
f 44/5/1 40/5/1 42/5/1
f 44/5/1 42/5/1 43/5/1
f 47/6/1 46/6/1 45/6/1
f 48/6/1 46/6/1 47/6/1
f 51/7/1 50/7/1 49/7/1
f 52/7/1 50/7/1 51/7/1
f 55/5/1 54/5/1 53/5/1
f 56/5/1 54/5/1 55/5/1
f 59/6/1 58/6/1 57/6/1
f 60/6/1 58/6/1 59/6/1
f 61/2/1 60/2/1 59/2/1
f 62/2/1 60/2/1 61/2/1
f 67/5/1 64/5/1 63/5/1
f 68/5/1 64/5/1 67/5/1
f 69/5/1 66/5/1 65/5/1
f 70/5/1 66/5/1 69/5/1
f 73/5/1 72/5/1 71/5/1
f 74/5/1 72/5/1 73/5/1
f 75/5/2 76/5/2 77/5/2
f 77/5/2 76/5/2 78/5/2
f 79/5/2 80/5/2 83/5/2
f 83/5/2 80/5/2 84/5/2
f 81/5/2 82/5/2 85/5/2
f 85/5/2 82/5/2 86/5/2
f 87/7/2 88/7/2 89/7/2
f 89/7/2 88/7/2 90/7/2
f 91/5/2 92/5/2 93/5/2
f 93/5/2 92/5/2 94/5/2
f 95/6/2 96/6/2 97/6/2
f 97/6/2 96/6/2 98/6/2
f 97/2/2 98/2/2 99/2/2
f 99/2/2 98/2/2 100/2/2
f 101/7/2 102/7/2 103/7/2
f 103/7/2 102/7/2 104/7/2
f 103/6/2 104/6/2 105/6/2
f 105/6/2 104/6/2 106/6/2
f 107/5/2 108/5/2 111/5/2
f 109/5/2 110/5/2 112/5/2
f 107/5/2 111/5/2 113/5/2
f 111/5/2 112/5/2 113/5/2
f 112/5/2 110/5/2 114/5/2
f 113/5/2 112/5/2 114/5/2
f 115/6/2 116/6/2 117/6/2
f 117/6/2 116/6/2 118/6/2
f 119/5/2 120/5/2 121/5/2
f 121/5/2 120/5/2 122/5/2
f 123/5/2 124/5/2 126/5/2
f 126/5/2 124/5/2 127/5/2
f 125/1/2 126/1/2 128/1/2
f 128/1/2 126/1/2 129/1/2
f 130/5/2 131/5/2 132/5/2
f 132/5/2 131/5/2 133/5/2
f 128/2/2 129/2/2 134/2/2
f 128/2/2 134/2/2 136/2/2
f 134/5/2 135/5/2 137/5/2
f 136/2/2 134/2/2 137/2/2
f 137/5/2 135/5/2 138/5/2
f 137/6/2 138/6/2 139/6/2
f 139/6/2 138/6/2 140/6/2
f 141/5/2 142/5/2 143/5/2
f 143/5/2 142/5/2 144/5/2
f 141/5/2 143/5/2 145/5/2
f 144/5/2 142/5/2 146/5/2
f 141/5/2 145/5/2 147/5/2
f 145/5/2 146/5/2 147/5/2
f 146/5/2 142/5/2 148/5/2
f 147/5/2 146/5/2 148/5/2
f 152/1/3 150/1/3 149/1/3
f 153/2/3 151/2/3 150/2/3
f 153/1/3 150/1/3 152/1/3
f 154/2/3 151/2/3 153/2/3
f 155/2/3 151/2/3 154/2/3
f 156/2/3 153/2/3 152/2/3
f 156/7/3 154/7/3 153/7/3
f 157/4/3 155/4/3 154/4/3
f 157/7/3 154/7/3 156/7/3
f 158/2/3 151/2/3 155/2/3
f 158/4/3 155/4/3 157/4/3
f 159/2/3 157/2/3 156/2/3
f 159/2/3 156/2/3 152/2/3
f 159/2/3 158/2/3 157/2/3
f 160/2/3 158/2/3 159/2/3
f 161/2/3 151/2/3 158/2/3
f 161/2/3 158/2/3 160/2/3
f 162/2/3 159/2/3 152/2/3
f 163/7/3 160/7/3 159/7/3
f 163/2/3 159/2/3 162/2/3
f 164/4/3 161/4/3 160/4/3
f 164/7/3 160/7/3 163/7/3
f 165/2/3 151/2/3 161/2/3
f 165/4/3 161/4/3 164/4/3
f 166/1/3 163/1/3 162/1/3
f 167/2/3 164/2/3 163/2/3
f 167/1/3 163/1/3 166/1/3
f 167/2/3 165/2/3 164/2/3
f 168/2/3 151/2/3 165/2/3
f 168/2/3 165/2/3 167/2/3
f 174/5/3 170/5/3 169/5/3
f 175/5/3 170/5/3 174/5/3
f 176/5/3 170/5/3 175/5/3
f 179/5/3 174/5/3 173/5/3
f 180/5/3 179/5/3 173/5/3
f 181/5/3 172/5/3 171/5/3
f 182/5/3 172/5/3 181/5/3
f 183/5/3 180/5/3 173/5/3
f 184/5/3 180/5/3 183/5/3
f 187/6/3 178/6/3 177/6/3
f 188/6/3 178/6/3 187/6/3
f 189/5/3 186/5/3 185/5/3
f 189/5/3 185/5/3 184/5/3
f 190/5/3 186/5/3 189/5/3
f 198/5/3 195/5/3 194/5/3
f 199/5/3 195/5/3 198/5/3
f 201/5/3 195/5/3 199/5/3
f 202/7/3 192/7/3 191/7/3
f 203/6/3 193/6/3 192/6/3
f 203/7/3 192/7/3 202/7/3
f 204/6/3 193/6/3 203/6/3
f 205/5/3 201/5/3 200/5/3
f 206/5/3 195/5/3 201/5/3
f 206/5/3 201/5/3 205/5/3
f 207/6/3 197/6/3 196/6/3
f 208/6/3 197/6/3 207/6/3
f 216/7/3 210/7/3 209/7/3
f 217/7/3 210/7/3 216/7/3
f 218/5/3 212/5/3 211/5/3
f 219/5/3 212/5/3 218/5/3
f 220/6/3 214/6/3 213/6/3
f 221/2/3 215/2/3 214/2/3
f 221/6/3 214/6/3 220/6/3
f 222/2/3 215/2/3 221/2/3
f 225/5/3 224/5/3 223/5/3
f 226/5/3 224/5/3 225/5/3
f 229/5/3 228/5/3 227/5/3
f 230/5/3 228/5/3 229/5/3
f 233/5/3 232/5/3 231/5/3
f 234/5/3 232/5/3 233/5/3
f 237/5/3 236/5/3 235/5/3
f 238/5/3 236/5/3 237/5/3
f 239/5/4 240/5/4 241/5/4
f 241/5/4 240/5/4 242/5/4
f 243/5/4 244/5/4 245/5/4
f 245/5/4 244/5/4 246/5/4
f 247/5/4 248/5/4 249/5/4
f 249/5/4 248/5/4 250/5/4
f 251/5/4 252/5/4 253/5/4
f 253/5/4 252/5/4 254/5/4
f 255/7/4 256/7/4 262/7/4
f 262/7/4 256/7/4 263/7/4
f 257/5/4 258/5/4 264/5/4
f 264/5/4 258/5/4 265/5/4
f 259/6/4 260/6/4 266/6/4
f 260/2/4 261/2/4 267/2/4
f 266/6/4 260/6/4 267/6/4
f 267/2/4 261/2/4 268/2/4
f 272/5/4 273/5/4 276/5/4
f 276/5/4 273/5/4 277/5/4
f 277/5/4 273/5/4 279/5/4
f 269/7/4 270/7/4 280/7/4
f 270/6/4 271/6/4 281/6/4
f 280/7/4 270/7/4 281/7/4
f 281/6/4 271/6/4 282/6/4
f 278/5/4 279/5/4 283/5/4
f 279/5/4 273/5/4 284/5/4
f 283/5/4 279/5/4 284/5/4
f 274/6/4 275/6/4 285/6/4
f 285/6/4 275/6/4 286/6/4
f 287/5/4 288/5/4 296/5/4
f 296/5/4 288/5/4 297/5/4
f 289/5/4 290/5/4 298/5/4
f 298/5/4 290/5/4 299/5/4
f 291/5/4 292/5/4 300/5/4
f 300/5/4 292/5/4 301/5/4
f 293/5/4 294/5/4 302/5/4
f 294/6/4 295/6/4 303/6/4
f 302/5/4 294/5/4 303/5/4
f 303/6/4 295/6/4 304/6/4
f 305/5/4 306/5/4 307/5/4
f 307/5/4 306/5/4 308/5/4
f 305/5/4 307/5/4 309/5/4
f 308/5/4 306/5/4 310/5/4
f 305/5/4 309/5/4 311/5/4
f 309/5/4 310/5/4 311/5/4
f 310/5/4 306/5/4 312/5/4
f 311/5/4 310/5/4 312/5/4
f 315/7/5 314/7/5 313/7/5
f 316/7/5 314/7/5 315/7/5
f 319/7/5 318/7/5 317/7/5
f 320/7/5 318/7/5 319/7/5
f 321/7/5 319/7/5 317/7/5
f 322/7/5 318/7/5 320/7/5
f 323/7/5 321/7/5 317/7/5
f 323/7/5 322/7/5 321/7/5
f 324/7/5 318/7/5 322/7/5
f 324/7/5 322/7/5 323/7/5
f 327/5/5 326/5/5 325/5/5
f 328/5/5 326/5/5 327/5/5
f 329/5/5 327/5/5 325/5/5
f 330/5/5 326/5/5 328/5/5
f 331/5/5 329/5/5 325/5/5
f 331/5/5 330/5/5 329/5/5
f 332/5/5 326/5/5 330/5/5
f 332/5/5 330/5/5 331/5/5
f 336/5/5 334/5/5 333/5/5
f 337/5/5 334/5/5 336/5/5
f 339/5/5 336/5/5 335/5/5
f 340/5/5 336/5/5 339/5/5
f 341/5/5 338/5/5 337/5/5
f 342/5/5 338/5/5 341/5/5
f 343/5/5 341/5/5 340/5/5
f 344/5/5 341/5/5 343/5/5
f 347/5/5 346/5/5 345/5/5
f 348/5/5 346/5/5 347/5/5
f 349/5/5 347/5/5 345/5/5
f 350/5/5 346/5/5 348/5/5
f 351/5/5 349/5/5 345/5/5
f 351/5/5 350/5/5 349/5/5
f 352/5/5 346/5/5 350/5/5
f 352/5/5 350/5/5 351/5/5
f 358/1/5 354/1/5 353/1/5
f 359/2/5 355/2/5 354/2/5
f 359/1/5 354/1/5 358/1/5
f 360/1/5 356/1/5 355/1/5
f 360/2/5 355/2/5 359/2/5
f 361/1/5 356/1/5 360/1/5
f 363/5/5 358/5/5 357/5/5
f 364/5/5 362/5/5 361/5/5
f 365/5/5 363/5/5 357/5/5
f 365/5/5 364/5/5 363/5/5
f 366/5/5 362/5/5 364/5/5
f 366/5/5 364/5/5 365/5/5
f 371/5/5 368/5/5 367/5/5
f 372/5/5 368/5/5 371/5/5
f 373/5/5 370/5/5 369/5/5
f 374/5/5 370/5/5 373/5/5
f 375/5/5 373/5/5 372/5/5
f 376/5/5 373/5/5 375/5/5
f 377/5/6 378/5/6 379/5/6
f 379/5/6 378/5/6 380/5/6
f 380/5/6 378/5/6 381/5/6
f 381/5/6 378/5/6 382/5/6
f 377/5/6 379/5/6 383/5/6
f 380/5/6 381/5/6 384/5/6
f 384/5/6 381/5/6 385/5/6
f 382/5/6 378/5/6 386/5/6
f 377/5/6 383/5/6 387/5/6
f 383/5/6 384/5/6 387/5/6
f 387/5/6 384/5/6 388/5/6
f 385/5/6 386/5/6 389/5/6
f 386/5/6 378/5/6 390/5/6
f 389/5/6 386/5/6 390/5/6
f 377/5/6 387/5/6 391/5/6
f 388/5/6 389/5/6 392/5/6
f 392/5/6 389/5/6 393/5/6
f 390/5/6 378/5/6 394/5/6
f 392/5/6 393/5/6 395/5/6
f 393/5/6 394/5/6 395/5/6
f 377/5/6 391/5/6 395/5/6
f 391/5/6 392/5/6 395/5/6
f 394/5/6 378/5/6 396/5/6
f 395/5/6 394/5/6 396/5/6
f 397/5/6 398/5/6 401/5/6
f 401/5/6 398/5/6 402/5/6
f 399/5/6 400/5/6 403/5/6
f 403/5/6 400/5/6 404/5/6
f 402/5/6 403/5/6 405/5/6
f 405/5/6 403/5/6 406/5/6
f 407/5/6 408/5/6 411/5/6
f 409/5/6 410/5/6 412/5/6
f 407/5/6 411/5/6 413/5/6
f 411/5/6 412/5/6 413/5/6
f 412/5/6 410/5/6 414/5/6
f 413/5/6 412/5/6 414/5/6
f 415/2/6 416/2/6 417/2/6
f 417/2/6 416/2/6 418/2/6
f 419/6/6 420/6/6 421/6/6
f 421/6/6 420/6/6 422/6/6
f 419/6/6 421/6/6 423/6/6
f 422/6/6 420/6/6 424/6/6
f 419/6/6 423/6/6 425/6/6
f 423/6/6 424/6/6 425/6/6
f 424/6/6 420/6/6 426/6/6
f 425/6/6 424/6/6 426/6/6
f 427/6/6 428/6/6 429/6/6
f 429/6/6 428/6/6 430/6/6
f 427/6/6 429/6/6 431/6/6
f 430/6/6 428/6/6 432/6/6
f 427/6/6 431/6/6 433/6/6
f 431/6/6 432/6/6 433/6/6
f 432/6/6 428/6/6 434/6/6
f 433/6/6 432/6/6 434/6/6
f 435/2/6 436/2/6 437/2/6
f 437/2/6 436/2/6 438/2/6
