# MagicaVoxel @ ephtracy

# material
mtllib SC_Rocket.mtl
usemtl palette

# normals
vn -1 0 0
vn 1 0 0
vn 0 0 1
vn 0 0 -1
vn 0 -1 0
vn 0 1 0

# texcoords
vt 0.857422 0.5
vt 0.978516 0.5
vt 0.986328 0.5
vt 0.990234 0.5

# verts
v -2.5 1 8
v -2.5 1 6
v -2.5 1 2
v -2.5 2 -10
v -2.5 2 -11
v -2.5 3 -10
v -2.5 3 -11
v -2.5 4 8
v -2.5 4 6
v -2.5 4 2
v -1.5 0 8
v -1.5 0 6
v -1.5 0 2
v -1.5 1 9
v -1.5 1 8
v -1.5 1 6
v -1.5 1 2
v -1.5 1 1
v -1.5 2 10
v -1.5 2 9
v -1.5 2 1
v -1.5 2 -3
v -1.5 2 -9
v -1.5 2 -10
v -1.5 3 10
v -1.5 3 9
v -1.5 3 1
v -1.5 3 -3
v -1.5 3 -9
v -1.5 3 -10
v -1.5 4 9
v -1.5 4 8
v -1.5 4 6
v -1.5 4 2
v -1.5 4 1
v -1.5 5 8
v -1.5 5 6
v -1.5 5 2
v -0.5 0 -10
v -0.5 0 -11
v -0.5 1 10
v -0.5 1 9
v -0.5 1 1
v -0.5 1 -4
v -0.5 1 -9
v -0.5 1 -10
v -0.5 2 11
v -0.5 2 10
v -0.5 2 9
v -0.5 2 1
v -0.5 2 -3
v -0.5 2 -4
v -0.5 2 -9
v -0.5 2 -11
v -0.5 3 11
v -0.5 3 10
v -0.5 3 9
v -0.5 3 1
v -0.5 3 -3
v -0.5 3 -4
v -0.5 3 -9
v -0.5 3 -11
v -0.5 4 10
v -0.5 4 9
v -0.5 4 1
v -0.5 4 -4
v -0.5 4 -9
v -0.5 4 -10
v -0.5 5 -10
v -0.5 5 -11
v 0.5 2 -10
v 0.5 2 -11
v 0.5 3 -10
v 0.5 3 -11
v -0.5 2 -10
v -0.5 2 -11
v -0.5 3 -10
v -0.5 3 -11
v 0.5 0 -10
v 0.5 0 -11
v 0.5 1 10
v 0.5 1 9
v 0.5 1 1
v 0.5 1 -4
v 0.5 1 -9
v 0.5 1 -10
v 0.5 2 11
v 0.5 2 10
v 0.5 2 9
v 0.5 2 1
v 0.5 2 -3
v 0.5 2 -4
v 0.5 2 -9
v 0.5 2 -10
v 0.5 2 -11
v 0.5 3 11
v 0.5 3 10
v 0.5 3 9
v 0.5 3 1
v 0.5 3 -3
v 0.5 3 -4
v 0.5 3 -9
v 0.5 3 -10
v 0.5 3 -11
v 0.5 4 10
v 0.5 4 9
v 0.5 4 1
v 0.5 4 -4
v 0.5 4 -9
v 0.5 4 -10
v 0.5 5 -10
v 0.5 5 -11
v 1.5 0 8
v 1.5 0 6
v 1.5 0 2
v 1.5 1 9
v 1.5 1 8
v 1.5 1 6
v 1.5 1 2
v 1.5 1 1
v 1.5 2 10
v 1.5 2 9
v 1.5 2 1
v 1.5 2 -3
v 1.5 2 -9
v 1.5 2 -10
v 1.5 3 10
v 1.5 3 9
v 1.5 3 1
v 1.5 3 -3
v 1.5 3 -9
v 1.5 3 -10
v 1.5 4 9
v 1.5 4 8
v 1.5 4 6
v 1.5 4 2
v 1.5 4 1
v 1.5 5 8
v 1.5 5 6
v 1.5 5 2
v 2.5 1 8
v 2.5 1 6
v 2.5 1 2
v 2.5 2 -10
v 2.5 2 -11
v 2.5 3 -10
v 2.5 3 -11
v 2.5 4 8
v 2.5 4 6
v 2.5 4 2
v -0.5 2 11
v -0.5 3 11
v 0.5 2 11
v 0.5 3 11
v -1.5 2 10
v -1.5 3 10
v -0.5 1 10
v -0.5 2 10
v -0.5 3 10
v -0.5 4 10
v 0.5 1 10
v 0.5 2 10
v 0.5 3 10
v 0.5 4 10
v 1.5 2 10
v 1.5 3 10
v -1.5 1 9
v -1.5 2 9
v -1.5 3 9
v -1.5 4 9
v -0.5 1 9
v -0.5 2 9
v -0.5 3 9
v -0.5 4 9
v 0.5 1 9
v 0.5 2 9
v 0.5 3 9
v 0.5 4 9
v 1.5 1 9
v 1.5 2 9
v 1.5 3 9
v 1.5 4 9
v -2.5 1 8
v -2.5 4 8
v -1.5 0 8
v -1.5 1 8
v -1.5 4 8
v -1.5 5 8
v 1.5 0 8
v 1.5 1 8
v 1.5 4 8
v 1.5 5 8
v 2.5 1 8
v 2.5 4 8
v -1.5 2 -9
v -1.5 3 -9
v -0.5 1 -9
v -0.5 2 -9
v -0.5 3 -9
v -0.5 4 -9
v 0.5 1 -9
v 0.5 2 -9
v 0.5 3 -9
v 0.5 4 -9
v 1.5 2 -9
v 1.5 3 -9
v -2.5 2 -10
v -2.5 3 -10
v -1.5 2 -10
v -1.5 3 -10
v -0.5 0 -10
v -0.5 1 -10
v -0.5 4 -10
v -0.5 5 -10
v 0.5 0 -10
v 0.5 1 -10
v 0.5 4 -10
v 0.5 5 -10
v 1.5 2 -10
v 1.5 3 -10
v 2.5 2 -10
v 2.5 3 -10
v -2.5 1 2
v -2.5 4 2
v -1.5 0 2
v -1.5 1 2
v -1.5 4 2
v -1.5 5 2
v 1.5 0 2
v 1.5 1 2
v 1.5 4 2
v 1.5 5 2
v 2.5 1 2
v 2.5 4 2
v -1.5 1 1
v -1.5 2 1
v -1.5 3 1
v -1.5 4 1
v -0.5 1 1
v -0.5 2 1
v -0.5 3 1
v -0.5 4 1
v 0.5 1 1
v 0.5 2 1
v 0.5 3 1
v 0.5 4 1
v 1.5 1 1
v 1.5 2 1
v 1.5 3 1
v 1.5 4 1
v -1.5 2 -3
v -1.5 3 -3
v -0.5 2 -3
v -0.5 3 -3
v 0.5 2 -3
v 0.5 3 -3
v 1.5 2 -3
v 1.5 3 -3
v -0.5 1 -4
v -0.5 2 -4
v -0.5 3 -4
v -0.5 4 -4
v 0.5 1 -4
v 0.5 2 -4
v 0.5 3 -4
v 0.5 4 -4
v -0.5 2 -10
v -0.5 3 -10
v 0.5 2 -10
v 0.5 3 -10
v -2.5 2 -11
v -2.5 3 -11
v -0.5 0 -11
v -0.5 2 -11
v -0.5 3 -11
v -0.5 5 -11
v 0.5 0 -11
v 0.5 2 -11
v 0.5 3 -11
v 0.5 5 -11
v 2.5 2 -11
v 2.5 3 -11
v -1.5 0 8
v 1.5 0 8
v -1.5 0 6
v 1.5 0 6
v -1.5 0 2
v 1.5 0 2
v -0.5 0 -10
v 0.5 0 -10
v -0.5 0 -11
v 0.5 0 -11
v -0.5 1 10
v 0.5 1 10
v -1.5 1 9
v -0.5 1 9
v 0.5 1 9
v 1.5 1 9
v -2.5 1 8
v -1.5 1 8
v 1.5 1 8
v 2.5 1 8
v -2.5 1 6
v -1.5 1 6
v 1.5 1 6
v 2.5 1 6
v -2.5 1 2
v -1.5 1 2
v 1.5 1 2
v 2.5 1 2
v -1.5 1 1
v -0.5 1 1
v 0.5 1 1
v 1.5 1 1
v -0.5 1 -4
v 0.5 1 -4
v -0.5 1 -9
v 0.5 1 -9
v -0.5 1 -10
v 0.5 1 -10
v -0.5 2 11
v 0.5 2 11
v -1.5 2 10
v -0.5 2 10
v 0.5 2 10
v 1.5 2 10
v -1.5 2 9
v -0.5 2 9
v 0.5 2 9
v 1.5 2 9
v -1.5 2 1
v -0.5 2 1
v 0.5 2 1
v 1.5 2 1
v -1.5 2 -3
v -0.5 2 -3
v 0.5 2 -3
v 1.5 2 -3
v -0.5 2 -4
v 0.5 2 -4
v -1.5 2 -9
v -0.5 2 -9
v 0.5 2 -9
v 1.5 2 -9
v -2.5 2 -10
v -1.5 2 -10
v 0.5 2 -10
v 1.5 2 -10
v 2.5 2 -10
v -2.5 2 -11
v -0.5 2 -11
v 0.5 2 -11
v 2.5 2 -11
v -0.5 3 -10
v 0.5 3 -10
v -0.5 3 -11
v 0.5 3 -11
v -0.5 2 -10
v 0.5 2 -10
v -0.5 2 -11
v 0.5 2 -11
v -0.5 3 11
v 0.5 3 11
v -1.5 3 10
v -0.5 3 10
v 0.5 3 10
v 1.5 3 10
v -1.5 3 9
v -0.5 3 9
v 0.5 3 9
v 1.5 3 9
v -1.5 3 1
v -0.5 3 1
v 0.5 3 1
v 1.5 3 1
v -1.5 3 -3
v -0.5 3 -3
v 0.5 3 -3
v 1.5 3 -3
v -0.5 3 -4
v 0.5 3 -4
v -1.5 3 -9
v -0.5 3 -9
v 0.5 3 -9
v 1.5 3 -9
v -2.5 3 -10
v -1.5 3 -10
v 0.5 3 -10
v 1.5 3 -10
v 2.5 3 -10
v -2.5 3 -11
v -0.5 3 -11
v 0.5 3 -11
v 2.5 3 -11
v -0.5 4 10
v 0.5 4 10
v -1.5 4 9
v -0.5 4 9
v 0.5 4 9
v 1.5 4 9
v -2.5 4 8
v -1.5 4 8
v 1.5 4 8
v 2.5 4 8
v -2.5 4 6
v -1.5 4 6
v 1.5 4 6
v 2.5 4 6
v -2.5 4 2
v -1.5 4 2
v 1.5 4 2
v 2.5 4 2
v -1.5 4 1
v -0.5 4 1
v 0.5 4 1
v 1.5 4 1
v -0.5 4 -4
v 0.5 4 -4
v -0.5 4 -9
v 0.5 4 -9
v -0.5 4 -10
v 0.5 4 -10
v -1.5 5 8
v 1.5 5 8
v -1.5 5 6
v 1.5 5 6
v -1.5 5 2
v 1.5 5 2
v -0.5 5 -10
v 0.5 5 -10
v -0.5 5 -11
v 0.5 5 -11

# faces
f 6/4/1 5/4/1 4/4/1
f 7/4/1 5/4/1 6/4/1
f 8/1/1 2/1/1 1/1/1
f 9/4/1 3/4/1 2/4/1
f 9/1/1 2/1/1 8/1/1
f 10/4/1 3/4/1 9/4/1
f 15/1/1 12/1/1 11/1/1
f 16/4/1 13/4/1 12/4/1
f 16/1/1 12/1/1 15/1/1
f 17/4/1 13/4/1 16/4/1
f 20/1/1 15/1/1 14/1/1
f 21/4/1 18/4/1 17/4/1
f 25/1/1 20/1/1 19/1/1
f 26/1/1 15/1/1 20/1/1
f 26/1/1 20/1/1 25/1/1
f 27/4/1 21/4/1 17/4/1
f 27/4/1 22/4/1 21/4/1
f 28/4/1 22/4/1 27/4/1
f 29/4/1 24/4/1 23/4/1
f 30/4/1 24/4/1 29/4/1
f 31/1/1 15/1/1 26/1/1
f 32/1/1 15/1/1 31/1/1
f 34/4/1 27/4/1 17/4/1
f 35/4/1 27/4/1 34/4/1
f 36/1/1 33/1/1 32/1/1
f 37/4/1 34/4/1 33/4/1
f 37/1/1 33/1/1 36/1/1
f 38/4/1 34/4/1 37/4/1
f 46/4/1 40/4/1 39/4/1
f 48/1/1 42/1/1 41/1/1
f 49/1/1 42/1/1 48/1/1
f 50/4/1 44/4/1 43/4/1
f 51/4/1 44/4/1 50/4/1
f 52/4/1 44/4/1 51/4/1
f 53/4/1 46/4/1 45/4/1
f 54/4/1 40/4/1 46/4/1
f 54/4/1 46/4/1 53/4/1
f 55/1/1 48/1/1 47/1/1
f 56/1/1 48/1/1 55/1/1
f 59/4/1 52/4/1 51/4/1
f 59/4/1 53/4/1 52/4/1
f 60/4/1 53/4/1 59/4/1
f 61/4/1 53/4/1 60/4/1
f 63/1/1 57/1/1 56/1/1
f 64/1/1 57/1/1 63/1/1
f 65/4/1 60/4/1 59/4/1
f 65/4/1 59/4/1 58/4/1
f 66/4/1 60/4/1 65/4/1
f 67/4/1 62/4/1 61/4/1
f 68/4/1 62/4/1 67/4/1
f 69/4/1 62/4/1 68/4/1
f 70/4/1 62/4/1 69/4/1
f 73/4/1 72/4/1 71/4/1
f 74/4/1 72/4/1 73/4/1
f 75/4/2 76/4/2 77/4/2
f 77/4/2 76/4/2 78/4/2
f 79/4/2 80/4/2 86/4/2
f 81/1/2 82/1/2 88/1/2
f 88/1/2 82/1/2 89/1/2
f 83/4/2 84/4/2 90/4/2
f 90/4/2 84/4/2 91/4/2
f 91/4/2 84/4/2 92/4/2
f 85/4/2 86/4/2 93/4/2
f 86/4/2 80/4/2 94/4/2
f 93/4/2 86/4/2 94/4/2
f 94/4/2 80/4/2 95/4/2
f 87/1/2 88/1/2 96/1/2
f 96/1/2 88/1/2 97/1/2
f 91/4/2 92/4/2 100/4/2
f 92/4/2 93/4/2 100/4/2
f 100/4/2 93/4/2 101/4/2
f 101/4/2 93/4/2 102/4/2
f 97/1/2 98/1/2 105/1/2
f 105/1/2 98/1/2 106/1/2
f 99/4/2 100/4/2 107/4/2
f 100/4/2 101/4/2 107/4/2
f 107/4/2 101/4/2 108/4/2
f 103/4/2 104/4/2 109/4/2
f 102/4/2 103/4/2 109/4/2
f 109/4/2 104/4/2 110/4/2
f 110/4/2 104/4/2 111/4/2
f 111/4/2 104/4/2 112/4/2
f 113/1/2 114/1/2 117/1/2
f 114/4/2 115/4/2 118/4/2
f 117/1/2 114/1/2 118/1/2
f 118/4/2 115/4/2 119/4/2
f 116/1/2 117/1/2 122/1/2
f 119/4/2 120/4/2 123/4/2
f 121/1/2 122/1/2 127/1/2
f 122/1/2 117/1/2 128/1/2
f 127/1/2 122/1/2 128/1/2
f 119/4/2 123/4/2 129/4/2
f 123/4/2 124/4/2 129/4/2
f 129/4/2 124/4/2 130/4/2
f 125/3/2 126/3/2 131/3/2
f 131/3/2 126/3/2 132/3/2
f 128/1/2 117/1/2 133/1/2
f 133/1/2 117/1/2 134/1/2
f 119/4/2 129/4/2 136/4/2
f 136/4/2 129/4/2 137/4/2
f 134/1/2 135/1/2 138/1/2
f 135/4/2 136/4/2 139/4/2
f 138/1/2 135/1/2 139/1/2
f 139/4/2 136/4/2 140/4/2
f 144/4/2 145/4/2 146/4/2
f 146/4/2 145/4/2 147/4/2
f 141/1/2 142/1/2 148/1/2
f 142/4/2 143/4/2 149/4/2
f 148/1/2 142/1/2 149/1/2
f 149/4/2 143/4/2 150/4/2
f 153/1/3 152/1/3 151/1/3
f 154/1/3 152/1/3 153/1/3
f 158/1/3 156/1/3 155/1/3
f 159/1/3 156/1/3 158/1/3
f 161/1/3 158/1/3 157/1/3
f 162/1/3 158/1/3 161/1/3
f 163/1/3 160/1/3 159/1/3
f 164/1/3 160/1/3 163/1/3
f 165/1/3 163/1/3 162/1/3
f 166/1/3 163/1/3 165/1/3
f 171/1/3 168/1/3 167/1/3
f 172/1/3 168/1/3 171/1/3
f 173/1/3 170/1/3 169/1/3
f 174/1/3 170/1/3 173/1/3
f 179/1/3 176/1/3 175/1/3
f 180/1/3 176/1/3 179/1/3
f 181/1/3 178/1/3 177/1/3
f 182/1/3 178/1/3 181/1/3
f 186/1/3 184/1/3 183/1/3
f 187/1/3 184/1/3 186/1/3
f 189/1/3 186/1/3 185/1/3
f 190/1/3 186/1/3 189/1/3
f 191/1/3 188/1/3 187/1/3
f 192/1/3 188/1/3 191/1/3
f 193/1/3 191/1/3 190/1/3
f 194/1/3 191/1/3 193/1/3
f 198/4/3 196/4/3 195/4/3
f 199/4/3 196/4/3 198/4/3
f 201/4/3 198/4/3 197/4/3
f 202/4/3 198/4/3 201/4/3
f 203/4/3 200/4/3 199/4/3
f 204/4/3 200/4/3 203/4/3
f 205/3/3 203/3/3 202/3/3
f 206/3/3 203/3/3 205/3/3
f 209/4/3 208/4/3 207/4/3
f 210/4/3 208/4/3 209/4/3
f 215/4/3 212/4/3 211/4/3
f 216/4/3 212/4/3 215/4/3
f 217/4/3 214/4/3 213/4/3
f 218/4/3 214/4/3 217/4/3
f 221/4/3 220/4/3 219/4/3
f 222/4/3 220/4/3 221/4/3
f 223/4/4 224/4/4 226/4/4
f 226/4/4 224/4/4 227/4/4
f 225/4/4 226/4/4 229/4/4
f 229/4/4 226/4/4 230/4/4
f 227/4/4 228/4/4 231/4/4
f 231/4/4 228/4/4 232/4/4
f 230/4/4 231/4/4 233/4/4
f 233/4/4 231/4/4 234/4/4
f 235/4/4 236/4/4 239/4/4
f 239/4/4 236/4/4 240/4/4
f 237/4/4 238/4/4 241/4/4
f 241/4/4 238/4/4 242/4/4
f 243/4/4 244/4/4 247/4/4
f 247/4/4 244/4/4 248/4/4
f 245/4/4 246/4/4 249/4/4
f 249/4/4 246/4/4 250/4/4
f 251/4/4 252/4/4 253/4/4
f 253/4/4 252/4/4 254/4/4
f 255/4/4 256/4/4 257/4/4
f 257/4/4 256/4/4 258/4/4
f 259/4/4 260/4/4 263/4/4
f 263/4/4 260/4/4 264/4/4
f 261/4/4 262/4/4 265/4/4
f 265/4/4 262/4/4 266/4/4
f 267/4/4 268/4/4 269/4/4
f 269/4/4 268/4/4 270/4/4
f 271/4/4 272/4/4 274/4/4
f 274/4/4 272/4/4 275/4/4
f 273/4/4 274/4/4 277/4/4
f 277/4/4 274/4/4 278/4/4
f 275/4/4 276/4/4 279/4/4
f 279/4/4 276/4/4 280/4/4
f 278/4/4 279/4/4 281/4/4
f 281/4/4 279/4/4 282/4/4
f 285/1/5 284/1/5 283/1/5
f 286/1/5 284/1/5 285/1/5
f 287/4/5 286/4/5 285/4/5
f 288/4/5 286/4/5 287/4/5
f 291/4/5 290/4/5 289/4/5
f 292/4/5 290/4/5 291/4/5
f 296/1/5 294/1/5 293/1/5
f 297/1/5 294/1/5 296/1/5
f 300/1/5 296/1/5 295/1/5
f 300/1/5 298/1/5 297/1/5
f 300/1/5 297/1/5 296/1/5
f 301/1/5 298/1/5 300/1/5
f 303/1/5 300/1/5 299/1/5
f 304/1/5 300/1/5 303/1/5
f 305/1/5 302/1/5 301/1/5
f 306/1/5 302/1/5 305/1/5
f 307/4/5 304/4/5 303/4/5
f 308/4/5 304/4/5 307/4/5
f 309/4/5 306/4/5 305/4/5
f 310/4/5 306/4/5 309/4/5
f 311/4/5 309/4/5 308/4/5
f 312/4/5 309/4/5 311/4/5
f 313/4/5 309/4/5 312/4/5
f 314/4/5 309/4/5 313/4/5
f 315/4/5 313/4/5 312/4/5
f 316/4/5 313/4/5 315/4/5
f 319/4/5 318/4/5 317/4/5
f 320/4/5 318/4/5 319/4/5
f 324/1/5 322/1/5 321/1/5
f 325/1/5 322/1/5 324/1/5
f 327/1/5 324/1/5 323/1/5
f 328/1/5 324/1/5 327/1/5
f 329/1/5 326/1/5 325/1/5
f 330/1/5 326/1/5 329/1/5
f 335/4/5 332/4/5 331/4/5
f 336/4/5 332/4/5 335/4/5
f 337/4/5 334/4/5 333/4/5
f 338/4/5 334/4/5 337/4/5
f 342/4/5 340/4/5 339/4/5
f 343/4/5 340/4/5 342/4/5
f 346/4/5 342/4/5 341/4/5
f 347/3/5 344/3/5 343/3/5
f 348/3/5 344/3/5 347/3/5
f 350/4/5 346/4/5 345/4/5
f 351/4/5 342/4/5 346/4/5
f 351/4/5 346/4/5 350/4/5
f 352/4/5 348/4/5 347/4/5
f 352/4/5 349/4/5 348/4/5
f 353/4/5 349/4/5 352/4/5
f 356/4/5 355/4/5 354/4/5
f 357/4/5 355/4/5 356/4/5
f 358/4/6 359/4/6 360/4/6
f 360/4/6 359/4/6 361/4/6
f 362/1/6 363/1/6 365/1/6
f 365/1/6 363/1/6 366/1/6
f 364/1/6 365/1/6 368/1/6
f 368/1/6 365/1/6 369/1/6
f 366/1/6 367/1/6 370/1/6
f 370/1/6 367/1/6 371/1/6
f 372/4/6 373/4/6 376/4/6
f 376/4/6 373/4/6 377/4/6
f 374/4/6 375/4/6 378/4/6
f 378/4/6 375/4/6 379/4/6
f 380/4/6 381/4/6 383/4/6
f 383/4/6 381/4/6 384/4/6
f 382/4/6 383/4/6 387/4/6
f 384/3/6 385/3/6 388/3/6
f 388/3/6 385/3/6 389/3/6
f 386/4/6 387/4/6 391/4/6
f 387/4/6 383/4/6 392/4/6
f 391/4/6 387/4/6 392/4/6
f 388/4/6 389/4/6 393/4/6
f 389/4/6 390/4/6 393/4/6
f 393/4/6 390/4/6 394/4/6
f 395/1/6 396/1/6 398/1/6
f 398/1/6 396/1/6 399/1/6
f 397/1/6 398/1/6 402/1/6
f 399/1/6 400/1/6 402/1/6
f 398/1/6 399/1/6 402/1/6
f 402/1/6 400/1/6 403/1/6
f 401/1/6 402/1/6 405/1/6
f 405/1/6 402/1/6 406/1/6
f 403/1/6 404/1/6 407/1/6
f 407/1/6 404/1/6 408/1/6
f 405/4/6 406/4/6 409/4/6
f 409/4/6 406/4/6 410/4/6
f 407/4/6 408/4/6 411/4/6
f 411/4/6 408/4/6 412/4/6
f 410/4/6 411/4/6 413/4/6
f 413/4/6 411/4/6 414/4/6
f 414/4/6 411/4/6 415/4/6
f 415/4/6 411/4/6 416/4/6
f 414/4/6 415/4/6 417/4/6
f 417/4/6 415/4/6 418/4/6
f 419/4/6 420/4/6 421/4/6
f 421/4/6 420/4/6 422/4/6
f 423/1/6 424/1/6 425/1/6
f 425/1/6 424/1/6 426/1/6
f 425/4/6 426/4/6 427/4/6
f 427/4/6 426/4/6 428/4/6
f 429/4/6 430/4/6 431/4/6
f 431/4/6 430/4/6 432/4/6
