# MagicaVoxel @ ephtracy

# material
mtllib sc_shiplight.mtl
usemtl palette

# normals
vn -1 0 0
vn 1 0 0
vn 0 0 1
vn 0 0 -1
vn 0 -1 0
vn 0 1 0

# texcoords
vt 0.154297 0.5
vt 0.958984 0.5
vt 0.974609 0.5
vt 0.986328 0.5

# verts
v -3.5 0 1.5
v -3.5 0 -1.5
v -3.5 1 1.5
v -3.5 1 -1.5
v -2.5 0 2.5
v -2.5 0 1.5
v -2.5 0 -1.5
v -2.5 0 -2.5
v -2.5 1 2.5
v -2.5 1 1.5
v -2.5 1 -1.5
v -2.5 1 -2.5
v -1.5 0 3.5
v -1.5 0 2.5
v -1.5 0 -2.5
v -1.5 0 -3.5
v -1.5 1 3.5
v -1.5 1 2.5
v -1.5 1 1.5
v -1.5 1 -1.5
v -1.5 1 -2.5
v -1.5 1 -3.5
v -1.5 2 1.5
v -1.5 2 0.5
v -1.5 2 -0.5
v -1.5 2 -1.5
v -1.5 3 0.5
v -1.5 3 -0.5
v -1.5 4 1.5
v -1.5 4 -1.5
v 1.5 0 3.5
v 1.5 0 2.5
v 1.5 0 -2.5
v 1.5 0 -3.5
v 1.5 1 3.5
v 1.5 1 2.5
v 1.5 1 1.5
v 1.5 1 -1.5
v 1.5 1 -2.5
v 1.5 1 -3.5
v 1.5 2 1.5
v 1.5 2 0.5
v 1.5 2 -0.5
v 1.5 2 -1.5
v 1.5 3 0.5
v 1.5 3 -0.5
v 1.5 4 1.5
v 1.5 4 -1.5
v 2.5 0 2.5
v 2.5 0 1.5
v 2.5 0 -1.5
v 2.5 0 -2.5
v 2.5 1 2.5
v 2.5 1 1.5
v 2.5 1 -1.5
v 2.5 1 -2.5
v 3.5 0 1.5
v 3.5 0 -1.5
v 3.5 1 1.5
v 3.5 1 -1.5
v -1.5 0 3.5
v -1.5 1 3.5
v 1.5 0 3.5
v 1.5 1 3.5
v -2.5 0 2.5
v -2.5 1 2.5
v -1.5 0 2.5
v -1.5 1 2.5
v 1.5 0 2.5
v 1.5 1 2.5
v 2.5 0 2.5
v 2.5 1 2.5
v -3.5 0 1.5
v -3.5 1 1.5
v -2.5 0 1.5
v -2.5 1 1.5
v -1.5 1 1.5
v -1.5 2 1.5
v -1.5 4 1.5
v -0.5 2 1.5
v -0.5 3 1.5
v 0.5 2 1.5
v 0.5 3 1.5
v 1.5 1 1.5
v 1.5 2 1.5
v 1.5 4 1.5
v 2.5 0 1.5
v 2.5 1 1.5
v 3.5 0 1.5
v 3.5 1 1.5
v -3.5 0 -1.5
v -3.5 1 -1.5
v -2.5 0 -1.5
v -2.5 1 -1.5
v -1.5 1 -1.5
v -1.5 2 -1.5
v -1.5 4 -1.5
v -0.5 2 -1.5
v -0.5 3 -1.5
v 0.5 2 -1.5
v 0.5 3 -1.5
v 1.5 1 -1.5
v 1.5 2 -1.5
v 1.5 4 -1.5
v 2.5 0 -1.5
v 2.5 1 -1.5
v 3.5 0 -1.5
v 3.5 1 -1.5
v -2.5 0 -2.5
v -2.5 1 -2.5
v -1.5 0 -2.5
v -1.5 1 -2.5
v 1.5 0 -2.5
v 1.5 1 -2.5
v 2.5 0 -2.5
v 2.5 1 -2.5
v -1.5 0 -3.5
v -1.5 1 -3.5
v 1.5 0 -3.5
v 1.5 1 -3.5
v -1.5 0 3.5
v 1.5 0 3.5
v -2.5 0 2.5
v -1.5 0 2.5
v 1.5 0 2.5
v 2.5 0 2.5
v -3.5 0 1.5
v -2.5 0 1.5
v 2.5 0 1.5
v 3.5 0 1.5
v -3.5 0 -1.5
v -2.5 0 -1.5
v 2.5 0 -1.5
v 3.5 0 -1.5
v -2.5 0 -2.5
v -1.5 0 -2.5
v 1.5 0 -2.5
v 2.5 0 -2.5
v -1.5 0 -3.5
v 1.5 0 -3.5
v -1.5 1 3.5
v 1.5 1 3.5
v -2.5 1 2.5
v -1.5 1 2.5
v 1.5 1 2.5
v 2.5 1 2.5
v -3.5 1 1.5
v -2.5 1 1.5
v -1.5 1 1.5
v 1.5 1 1.5
v 2.5 1 1.5
v 3.5 1 1.5
v -3.5 1 -1.5
v -2.5 1 -1.5
v -1.5 1 -1.5
v 1.5 1 -1.5
v 2.5 1 -1.5
v 3.5 1 -1.5
v -2.5 1 -2.5
v -1.5 1 -2.5
v 1.5 1 -2.5
v 2.5 1 -2.5
v -1.5 1 -3.5
v 1.5 1 -3.5
v -1.5 4 1.5
v 1.5 4 1.5
v -1.5 4 -1.5
v 1.5 4 -1.5

# faces
f 3/4/1 2/4/1 1/4/1
f 4/4/1 2/4/1 3/4/1
f 9/4/1 6/4/1 5/4/1
f 10/4/1 6/4/1 9/4/1
f 11/4/1 8/4/1 7/4/1
f 12/4/1 8/4/1 11/4/1
f 17/4/1 14/4/1 13/4/1
f 18/4/1 14/4/1 17/4/1
f 21/4/1 16/4/1 15/4/1
f 22/4/1 16/4/1 21/4/1
f 23/3/1 20/3/1 19/3/1
f 24/3/1 20/3/1 23/3/1
f 25/3/1 20/3/1 24/3/1
f 26/3/1 20/3/1 25/3/1
f 27/2/1 24/2/1 23/2/1
f 27/3/1 25/3/1 24/3/1
f 28/2/1 26/2/1 25/2/1
f 28/3/1 25/3/1 27/3/1
f 29/2/1 27/2/1 23/2/1
f 29/2/1 28/2/1 27/2/1
f 30/2/1 26/2/1 28/2/1
f 30/2/1 28/2/1 29/2/1
f 31/4/2 32/4/2 35/4/2
f 35/4/2 32/4/2 36/4/2
f 33/4/2 34/4/2 39/4/2
f 39/4/2 34/4/2 40/4/2
f 37/3/2 38/3/2 41/3/2
f 41/3/2 38/3/2 42/3/2
f 42/3/2 38/3/2 43/3/2
f 43/3/2 38/3/2 44/3/2
f 41/2/2 42/2/2 45/2/2
f 42/3/2 43/3/2 45/3/2
f 43/2/2 44/2/2 46/2/2
f 45/3/2 43/3/2 46/3/2
f 41/2/2 45/2/2 47/2/2
f 45/2/2 46/2/2 47/2/2
f 46/2/2 44/2/2 48/2/2
f 47/2/2 46/2/2 48/2/2
f 49/4/2 50/4/2 53/4/2
f 53/4/2 50/4/2 54/4/2
f 51/4/2 52/4/2 55/4/2
f 55/4/2 52/4/2 56/4/2
f 57/4/2 58/4/2 59/4/2
f 59/4/2 58/4/2 60/4/2
f 63/4/3 62/4/3 61/4/3
f 64/4/3 62/4/3 63/4/3
f 67/4/3 66/4/3 65/4/3
f 68/4/3 66/4/3 67/4/3
f 71/4/3 70/4/3 69/4/3
f 72/4/3 70/4/3 71/4/3
f 75/4/3 74/4/3 73/4/3
f 76/4/3 74/4/3 75/4/3
f 80/3/3 78/3/3 77/3/3
f 80/2/3 79/2/3 78/2/3
f 81/2/3 79/2/3 80/2/3
f 82/3/3 80/3/3 77/3/3
f 82/3/3 81/3/3 80/3/3
f 83/2/3 79/2/3 81/2/3
f 83/3/3 81/3/3 82/3/3
f 84/3/3 82/3/3 77/3/3
f 85/2/3 83/2/3 82/2/3
f 85/3/3 82/3/3 84/3/3
f 86/2/3 79/2/3 83/2/3
f 86/2/3 83/2/3 85/2/3
f 89/4/3 88/4/3 87/4/3
f 90/4/3 88/4/3 89/4/3
f 91/4/4 92/4/4 93/4/4
f 93/4/4 92/4/4 94/4/4
f 95/3/4 96/3/4 98/3/4
f 96/2/4 97/2/4 98/2/4
f 98/2/4 97/2/4 99/2/4
f 95/3/4 98/3/4 100/3/4
f 98/3/4 99/3/4 100/3/4
f 99/2/4 97/2/4 101/2/4
f 100/3/4 99/3/4 101/3/4
f 95/3/4 100/3/4 102/3/4
f 100/2/4 101/2/4 103/2/4
f 102/3/4 100/3/4 103/3/4
f 101/2/4 97/2/4 104/2/4
f 103/2/4 101/2/4 104/2/4
f 105/4/4 106/4/4 107/4/4
f 107/4/4 106/4/4 108/4/4
f 109/4/4 110/4/4 111/4/4
f 111/4/4 110/4/4 112/4/4
f 113/4/4 114/4/4 115/4/4
f 115/4/4 114/4/4 116/4/4
f 117/4/4 118/4/4 119/4/4
f 119/4/4 118/4/4 120/4/4
f 124/4/5 122/4/5 121/4/5
f 125/4/5 122/4/5 124/4/5
f 128/4/5 124/4/5 123/4/5
f 128/4/5 126/4/5 125/4/5
f 128/4/5 125/4/5 124/4/5
f 129/4/5 126/4/5 128/4/5
f 131/4/5 128/4/5 127/4/5
f 131/4/5 130/4/5 129/4/5
f 131/4/5 129/4/5 128/4/5
f 132/4/5 130/4/5 131/4/5
f 133/4/5 130/4/5 132/4/5
f 134/4/5 130/4/5 133/4/5
f 135/4/5 133/4/5 132/4/5
f 136/4/5 133/4/5 135/4/5
f 137/4/5 133/4/5 136/4/5
f 138/4/5 133/4/5 137/4/5
f 139/4/5 137/4/5 136/4/5
f 140/4/5 137/4/5 139/4/5
f 141/4/6 142/4/6 144/4/6
f 144/4/6 142/4/6 145/4/6
f 143/4/6 144/4/6 148/4/6
f 145/4/6 146/4/6 148/4/6
f 144/4/6 145/4/6 148/4/6
f 148/4/6 146/4/6 149/4/6
f 149/4/6 146/4/6 150/4/6
f 150/4/6 146/4/6 151/4/6
f 147/4/6 148/4/6 153/4/6
f 148/4/6 149/4/6 153/4/6
f 153/4/6 149/4/6 154/4/6
f 154/4/6 149/4/6 155/4/6
f 151/4/6 152/4/6 156/4/6
f 150/4/6 151/4/6 156/4/6
f 156/4/6 152/4/6 157/4/6
f 157/4/6 152/4/6 158/4/6
f 154/4/6 155/4/6 159/4/6
f 156/4/6 157/4/6 159/4/6
f 155/4/6 156/4/6 159/4/6
f 159/4/6 157/4/6 160/4/6
f 160/4/6 157/4/6 161/4/6
f 161/4/6 157/4/6 162/4/6
f 160/4/6 161/4/6 163/4/6
f 163/4/6 161/4/6 164/4/6
f 165/2/6 166/2/6 167/2/6
f 167/2/6 166/2/6 168/2/6
