# MagicaVoxel @ ephtracy

# material
mtllib SC_Track.mtl
usemtl palette

# normals
vn -1 0 0
vn 1 0 0
vn 0 0 1
vn 0 0 -1
vn 0 -1 0
vn 0 1 0

# texcoords
vt 0.537109 0.5
vt 0.978516 0.5
vt 0.982422 0.5

# verts
v -15 0 18
v -15 0 14
v -15 0 10
v -15 0 6
v -15 0 2
v -15 0 -2
v -15 0 -6
v -15 0 -10
v -15 0 -14
v -15 0 -18
v -15 1 18
v -15 1 14
v -15 1 10
v -15 1 6
v -15 1 2
v -15 1 -2
v -15 1 -6
v -15 1 -10
v -15 1 -14
v -15 1 -18
v -13 1 20
v -13 1 18
v -13 1 14
v -13 1 10
v -13 1 6
v -13 1 2
v -13 1 -2
v -13 1 -6
v -13 1 -10
v -13 1 -14
v -13 1 -18
v -13 1 -20
v -13 2 20
v -13 2 -20
v -12 2 20
v -12 2 -20
v -12 3 20
v -12 3 -20
v 10 1 20
v 10 1 18
v 10 1 14
v 10 1 10
v 10 1 6
v 10 1 2
v 10 1 -2
v 10 1 -6
v 10 1 -10
v 10 1 -14
v 10 1 -18
v 10 1 -20
v 10 2 20
v 10 2 -20
v 11 2 20
v 11 2 -20
v 11 3 20
v 11 3 -20
v -11 2 20
v -11 2 -20
v -11 3 20
v -11 3 -20
v -10 1 20
v -10 1 18
v -10 1 14
v -10 1 10
v -10 1 6
v -10 1 2
v -10 1 -2
v -10 1 -6
v -10 1 -10
v -10 1 -14
v -10 1 -18
v -10 1 -20
v -10 2 20
v -10 2 -20
v 12 2 20
v 12 2 -20
v 12 3 20
v 12 3 -20
v 13 1 20
v 13 1 18
v 13 1 14
v 13 1 10
v 13 1 6
v 13 1 2
v 13 1 -2
v 13 1 -6
v 13 1 -10
v 13 1 -14
v 13 1 -18
v 13 1 -20
v 13 2 20
v 13 2 -20
v 15 0 18
v 15 0 14
v 15 0 10
v 15 0 6
v 15 0 2
v 15 0 -2
v 15 0 -6
v 15 0 -10
v 15 0 -14
v 15 0 -18
v 15 1 18
v 15 1 14
v 15 1 10
v 15 1 6
v 15 1 2
v 15 1 -2
v 15 1 -6
v 15 1 -10
v 15 1 -14
v 15 1 -18
v -13 1 20
v -13 2 20
v -12 2 20
v -12 3 20
v -11 2 20
v -11 3 20
v -10 1 20
v -10 2 20
v 10 1 20
v 10 2 20
v 11 2 20
v 11 3 20
v 12 2 20
v 12 3 20
v 13 1 20
v 13 2 20
v -15 0 18
v -15 1 18
v -13 1 18
v -10 1 18
v 10 1 18
v 13 1 18
v 15 0 18
v 15 1 18
v -15 0 10
v -15 1 10
v -13 1 10
v -10 1 10
v 10 1 10
v 13 1 10
v 15 0 10
v 15 1 10
v -15 0 2
v -15 1 2
v -13 1 2
v -10 1 2
v 10 1 2
v 13 1 2
v 15 0 2
v 15 1 2
v -15 0 -6
v -15 1 -6
v -13 1 -6
v -10 1 -6
v 10 1 -6
v 13 1 -6
v 15 0 -6
v 15 1 -6
v -15 0 -14
v -15 1 -14
v -13 1 -14
v -10 1 -14
v 10 1 -14
v 13 1 -14
v 15 0 -14
v 15 1 -14
v -15 0 14
v -15 1 14
v -13 1 14
v -10 1 14
v 10 1 14
v 13 1 14
v 15 0 14
v 15 1 14
v -15 0 6
v -15 1 6
v -13 1 6
v -10 1 6
v 10 1 6
v 13 1 6
v 15 0 6
v 15 1 6
v -15 0 -2
v -15 1 -2
v -13 1 -2
v -10 1 -2
v 10 1 -2
v 13 1 -2
v 15 0 -2
v 15 1 -2
v -15 0 -10
v -15 1 -10
v -13 1 -10
v -10 1 -10
v 10 1 -10
v 13 1 -10
v 15 0 -10
v 15 1 -10
v -15 0 -18
v -15 1 -18
v -13 1 -18
v -10 1 -18
v 10 1 -18
v 13 1 -18
v 15 0 -18
v 15 1 -18
v -13 1 -20
v -13 2 -20
v -12 2 -20
v -12 3 -20
v -11 2 -20
v -11 3 -20
v -10 1 -20
v -10 2 -20
v 10 1 -20
v 10 2 -20
v 11 2 -20
v 11 3 -20
v 12 2 -20
v 12 3 -20
v 13 1 -20
v 13 2 -20
v -15 0 18
v 15 0 18
v -15 0 14
v 15 0 14
v -15 0 10
v 15 0 10
v -15 0 6
v 15 0 6
v -15 0 2
v 15 0 2
v -15 0 -2
v 15 0 -2
v -15 0 -6
v 15 0 -6
v -15 0 -10
v 15 0 -10
v -15 0 -14
v 15 0 -14
v -15 0 -18
v 15 0 -18
v -13 1 20
v -10 1 20
v 10 1 20
v 13 1 20
v -13 1 18
v -10 1 18
v 10 1 18
v 13 1 18
v -13 1 14
v -10 1 14
v 10 1 14
v 13 1 14
v -13 1 10
v -10 1 10
v 10 1 10
v 13 1 10
v -13 1 6
v -10 1 6
v 10 1 6
v 13 1 6
v -13 1 2
v -10 1 2
v 10 1 2
v 13 1 2
v -13 1 -2
v -10 1 -2
v 10 1 -2
v 13 1 -2
v -13 1 -6
v -10 1 -6
v 10 1 -6
v 13 1 -6
v -13 1 -10
v -10 1 -10
v 10 1 -10
v 13 1 -10
v -13 1 -14
v -10 1 -14
v 10 1 -14
v 13 1 -14
v -13 1 -18
v -10 1 -18
v 10 1 -18
v 13 1 -18
v -13 1 -20
v -10 1 -20
v 10 1 -20
v 13 1 -20
v -15 1 18
v -13 1 18
v -10 1 18
v 10 1 18
v 13 1 18
v 15 1 18
v -15 1 14
v -13 1 14
v -10 1 14
v 10 1 14
v 13 1 14
v 15 1 14
v -15 1 10
v -13 1 10
v -10 1 10
v 10 1 10
v 13 1 10
v 15 1 10
v -15 1 6
v -13 1 6
v -10 1 6
v 10 1 6
v 13 1 6
v 15 1 6
v -15 1 2
v -13 1 2
v -10 1 2
v 10 1 2
v 13 1 2
v 15 1 2
v -15 1 -2
v -13 1 -2
v -10 1 -2
v 10 1 -2
v 13 1 -2
v 15 1 -2
v -15 1 -6
v -13 1 -6
v -10 1 -6
v 10 1 -6
v 13 1 -6
v 15 1 -6
v -15 1 -10
v -13 1 -10
v -10 1 -10
v 10 1 -10
v 13 1 -10
v 15 1 -10
v -15 1 -14
v -13 1 -14
v -10 1 -14
v 10 1 -14
v 13 1 -14
v 15 1 -14
v -15 1 -18
v -13 1 -18
v -10 1 -18
v 10 1 -18
v 13 1 -18
v 15 1 -18
v -13 2 20
v -12 2 20
v -11 2 20
v -10 2 20
v 10 2 20
v 11 2 20
v 12 2 20
v 13 2 20
v -13 2 -20
v -12 2 -20
v -11 2 -20
v -10 2 -20
v 10 2 -20
v 11 2 -20
v 12 2 -20
v 13 2 -20
v -12 3 20
v -11 3 20
v 11 3 20
v 12 3 20
v -12 3 -20
v -11 3 -20
v 11 3 -20
v 12 3 -20

# faces
f 11/1/1 2/1/1 1/1/1
f 12/1/1 2/1/1 11/1/1
f 13/1/1 4/1/1 3/1/1
f 14/1/1 4/1/1 13/1/1
f 15/1/1 6/1/1 5/1/1
f 16/1/1 6/1/1 15/1/1
f 17/1/1 8/1/1 7/1/1
f 18/1/1 8/1/1 17/1/1
f 19/1/1 10/1/1 9/1/1
f 20/1/1 10/1/1 19/1/1
f 33/3/1 22/3/1 21/3/1
f 33/3/1 32/3/1 31/3/1
f 33/3/1 31/3/1 30/3/1
f 33/3/1 30/3/1 29/3/1
f 33/3/1 29/3/1 28/3/1
f 33/3/1 28/3/1 27/3/1
f 33/3/1 27/3/1 26/3/1
f 33/3/1 26/3/1 25/3/1
f 33/3/1 25/3/1 24/3/1
f 33/3/1 24/3/1 23/3/1
f 33/3/1 23/3/1 22/3/1
f 34/3/1 32/3/1 33/3/1
f 37/2/1 36/2/1 35/2/1
f 38/2/1 36/2/1 37/2/1
f 51/3/1 40/3/1 39/3/1
f 51/3/1 50/3/1 49/3/1
f 51/3/1 49/3/1 48/3/1
f 51/3/1 48/3/1 47/3/1
f 51/3/1 47/3/1 46/3/1
f 51/3/1 46/3/1 45/3/1
f 51/3/1 45/3/1 44/3/1
f 51/3/1 44/3/1 43/3/1
f 51/3/1 43/3/1 42/3/1
f 51/3/1 42/3/1 41/3/1
f 51/3/1 41/3/1 40/3/1
f 52/3/1 50/3/1 51/3/1
f 55/2/1 54/2/1 53/2/1
f 56/2/1 54/2/1 55/2/1
f 57/2/2 58/2/2 59/2/2
f 59/2/2 58/2/2 60/2/2
f 61/3/2 62/3/2 73/3/2
f 71/3/2 72/3/2 73/3/2
f 70/3/2 71/3/2 73/3/2
f 69/3/2 70/3/2 73/3/2
f 68/3/2 69/3/2 73/3/2
f 67/3/2 68/3/2 73/3/2
f 66/3/2 67/3/2 73/3/2
f 65/3/2 66/3/2 73/3/2
f 64/3/2 65/3/2 73/3/2
f 63/3/2 64/3/2 73/3/2
f 62/3/2 63/3/2 73/3/2
f 73/3/2 72/3/2 74/3/2
f 75/2/2 76/2/2 77/2/2
f 77/2/2 76/2/2 78/2/2
f 79/3/2 80/3/2 91/3/2
f 89/3/2 90/3/2 91/3/2
f 88/3/2 89/3/2 91/3/2
f 87/3/2 88/3/2 91/3/2
f 86/3/2 87/3/2 91/3/2
f 85/3/2 86/3/2 91/3/2
f 84/3/2 85/3/2 91/3/2
f 83/3/2 84/3/2 91/3/2
f 82/3/2 83/3/2 91/3/2
f 81/3/2 82/3/2 91/3/2
f 80/3/2 81/3/2 91/3/2
f 91/3/2 90/3/2 92/3/2
f 93/1/2 94/1/2 103/1/2
f 103/1/2 94/1/2 104/1/2
f 95/1/2 96/1/2 105/1/2
f 105/1/2 96/1/2 106/1/2
f 97/1/2 98/1/2 107/1/2
f 107/1/2 98/1/2 108/1/2
f 99/1/2 100/1/2 109/1/2
f 109/1/2 100/1/2 110/1/2
f 101/1/2 102/1/2 111/1/2
f 111/1/2 102/1/2 112/1/2
f 115/3/3 114/3/3 113/3/3
f 117/3/3 115/3/3 113/3/3
f 117/2/3 116/2/3 115/2/3
f 118/2/3 116/2/3 117/2/3
f 119/3/3 117/3/3 113/3/3
f 120/3/3 117/3/3 119/3/3
f 123/3/3 122/3/3 121/3/3
f 125/3/3 123/3/3 121/3/3
f 125/2/3 124/2/3 123/2/3
f 126/2/3 124/2/3 125/2/3
f 127/3/3 125/3/3 121/3/3
f 128/3/3 125/3/3 127/3/3
f 131/1/3 130/1/3 129/1/3
f 132/1/3 131/1/3 129/1/3
f 133/1/3 132/1/3 129/1/3
f 134/1/3 133/1/3 129/1/3
f 135/1/3 134/1/3 129/1/3
f 136/1/3 134/1/3 135/1/3
f 139/1/3 138/1/3 137/1/3
f 140/1/3 139/1/3 137/1/3
f 141/1/3 140/1/3 137/1/3
f 142/1/3 141/1/3 137/1/3
f 143/1/3 142/1/3 137/1/3
f 144/1/3 142/1/3 143/1/3
f 147/1/3 146/1/3 145/1/3
f 148/1/3 147/1/3 145/1/3
f 149/1/3 148/1/3 145/1/3
f 150/1/3 149/1/3 145/1/3
f 151/1/3 150/1/3 145/1/3
f 152/1/3 150/1/3 151/1/3
f 155/1/3 154/1/3 153/1/3
f 156/1/3 155/1/3 153/1/3
f 157/1/3 156/1/3 153/1/3
f 158/1/3 157/1/3 153/1/3
f 159/1/3 158/1/3 153/1/3
f 160/1/3 158/1/3 159/1/3
f 163/1/3 162/1/3 161/1/3
f 164/1/3 163/1/3 161/1/3
f 165/1/3 164/1/3 161/1/3
f 166/1/3 165/1/3 161/1/3
f 167/1/3 166/1/3 161/1/3
f 168/1/3 166/1/3 167/1/3
f 169/1/4 170/1/4 171/1/4
f 169/1/4 171/1/4 172/1/4
f 169/1/4 172/1/4 173/1/4
f 169/1/4 173/1/4 174/1/4
f 169/1/4 174/1/4 175/1/4
f 175/1/4 174/1/4 176/1/4
f 177/1/4 178/1/4 179/1/4
f 177/1/4 179/1/4 180/1/4
f 177/1/4 180/1/4 181/1/4
f 177/1/4 181/1/4 182/1/4
f 177/1/4 182/1/4 183/1/4
f 183/1/4 182/1/4 184/1/4
f 185/1/4 186/1/4 187/1/4
f 185/1/4 187/1/4 188/1/4
f 185/1/4 188/1/4 189/1/4
f 185/1/4 189/1/4 190/1/4
f 185/1/4 190/1/4 191/1/4
f 191/1/4 190/1/4 192/1/4
f 193/1/4 194/1/4 195/1/4
f 193/1/4 195/1/4 196/1/4
f 193/1/4 196/1/4 197/1/4
f 193/1/4 197/1/4 198/1/4
f 193/1/4 198/1/4 199/1/4
f 199/1/4 198/1/4 200/1/4
f 201/1/4 202/1/4 203/1/4
f 201/1/4 203/1/4 204/1/4
f 201/1/4 204/1/4 205/1/4
f 201/1/4 205/1/4 206/1/4
f 201/1/4 206/1/4 207/1/4
f 207/1/4 206/1/4 208/1/4
f 209/3/4 210/3/4 211/3/4
f 209/3/4 211/3/4 213/3/4
f 211/2/4 212/2/4 213/2/4
f 213/2/4 212/2/4 214/2/4
f 209/3/4 213/3/4 215/3/4
f 215/3/4 213/3/4 216/3/4
f 217/3/4 218/3/4 219/3/4
f 217/3/4 219/3/4 221/3/4
f 219/2/4 220/2/4 221/2/4
f 221/2/4 220/2/4 222/2/4
f 217/3/4 221/3/4 223/3/4
f 223/3/4 221/3/4 224/3/4
f 227/1/5 226/1/5 225/1/5
f 228/1/5 226/1/5 227/1/5
f 231/1/5 230/1/5 229/1/5
f 232/1/5 230/1/5 231/1/5
f 235/1/5 234/1/5 233/1/5
f 236/1/5 234/1/5 235/1/5
f 239/1/5 238/1/5 237/1/5
f 240/1/5 238/1/5 239/1/5
f 243/1/5 242/1/5 241/1/5
f 244/1/5 242/1/5 243/1/5
f 249/3/5 246/3/5 245/3/5
f 250/3/5 246/3/5 249/3/5
f 251/3/5 248/3/5 247/3/5
f 252/3/5 248/3/5 251/3/5
f 257/3/5 254/3/5 253/3/5
f 258/3/5 254/3/5 257/3/5
f 259/3/5 256/3/5 255/3/5
f 260/3/5 256/3/5 259/3/5
f 265/3/5 262/3/5 261/3/5
f 266/3/5 262/3/5 265/3/5
f 267/3/5 264/3/5 263/3/5
f 268/3/5 264/3/5 267/3/5
f 273/3/5 270/3/5 269/3/5
f 274/3/5 270/3/5 273/3/5
f 275/3/5 272/3/5 271/3/5
f 276/3/5 272/3/5 275/3/5
f 281/3/5 278/3/5 277/3/5
f 282/3/5 278/3/5 281/3/5
f 283/3/5 280/3/5 279/3/5
f 284/3/5 280/3/5 283/3/5
f 289/3/5 286/3/5 285/3/5
f 290/3/5 286/3/5 289/3/5
f 291/3/5 288/3/5 287/3/5
f 292/3/5 288/3/5 291/3/5
f 293/1/6 294/1/6 299/1/6
f 299/1/6 294/1/6 300/1/6
f 295/1/6 296/1/6 301/1/6
f 301/1/6 296/1/6 302/1/6
f 297/1/6 298/1/6 303/1/6
f 303/1/6 298/1/6 304/1/6
f 305/1/6 306/1/6 311/1/6
f 311/1/6 306/1/6 312/1/6
f 307/1/6 308/1/6 313/1/6
f 313/1/6 308/1/6 314/1/6
f 309/1/6 310/1/6 315/1/6
f 315/1/6 310/1/6 316/1/6
f 317/1/6 318/1/6 323/1/6
f 323/1/6 318/1/6 324/1/6
f 319/1/6 320/1/6 325/1/6
f 325/1/6 320/1/6 326/1/6
f 321/1/6 322/1/6 327/1/6
f 327/1/6 322/1/6 328/1/6
f 329/1/6 330/1/6 335/1/6
f 335/1/6 330/1/6 336/1/6
f 331/1/6 332/1/6 337/1/6
f 337/1/6 332/1/6 338/1/6
f 333/1/6 334/1/6 339/1/6
f 339/1/6 334/1/6 340/1/6
f 341/1/6 342/1/6 347/1/6
f 347/1/6 342/1/6 348/1/6
f 343/1/6 344/1/6 349/1/6
f 349/1/6 344/1/6 350/1/6
f 345/1/6 346/1/6 351/1/6
f 351/1/6 346/1/6 352/1/6
f 353/3/6 354/3/6 361/3/6
f 361/3/6 354/3/6 362/3/6
f 355/3/6 356/3/6 363/3/6
f 363/3/6 356/3/6 364/3/6
f 357/3/6 358/3/6 365/3/6
f 365/3/6 358/3/6 366/3/6
f 359/3/6 360/3/6 367/3/6
f 367/3/6 360/3/6 368/3/6
f 369/2/6 370/2/6 373/2/6
f 373/2/6 370/2/6 374/2/6
f 371/2/6 372/2/6 375/2/6
f 375/2/6 372/2/6 376/2/6
