# MagicaVoxel @ ephtracy

# material
mtllib SC_Violin.mtl
usemtl palette

# normals
vn -1 0 0
vn 1 0 0
vn 0 0 1
vn 0 0 -1
vn 0 -1 0
vn 0 1 0

# texcoords
vt 0.396484 0.5
vt 0.537109 0.5
vt 0.955078 0.5
vt 0.978516 0.5

# verts
v -5 2 0.5
v -5 2 -0.5
v -5 4 0.5
v -5 4 -0.5
v -5 8 0.5
v -5 8 -0.5
v -4 1 0.5
v -4 1 -0.5
v -4 2 0.5
v -4 2 -0.5
v -4 8 0.5
v -4 8 -0.5
v -4 9 0.5
v -4 9 -0.5
v -4 13 0.5
v -4 13 -0.5
v -4 18 0.5
v -4 18 -0.5
v -3 9 0.5
v -3 9 -0.5
v -3 13 0.5
v -3 13 -0.5
v -3 18 0.5
v -3 18 -0.5
v -3 19 0.5
v -3 19 -0.5
v -2 0 0.5
v -2 0 -0.5
v -2 1 0.5
v -2 1 -0.5
v -2 29 0.5
v -2 29 -0.5
v -2 30 0.5
v -2 30 -0.5
v -2 31 0.5
v -2 31 -0.5
v -1 19 0.5
v -1 19 -0.5
v -1 29 0.5
v -1 29 -0.5
v -1 31 0.5
v -1 31 -0.5
v -1 33 0.5
v -1 33 -0.5
v 0 30 0.5
v 0 30 -0.5
v 0 31 0.5
v 0 31 -0.5
v 1 19 0.5
v 1 19 -0.5
v 1 29 0.5
v 1 29 -0.5
v 1 32 0.5
v 1 32 -0.5
v 1 33 0.5
v 1 33 -0.5
v 2 0 0.5
v 2 0 -0.5
v 2 1 0.5
v 2 1 -0.5
v 2 29 0.5
v 2 29 -0.5
v 2 30 0.5
v 2 30 -0.5
v 2 31 0.5
v 2 31 -0.5
v 2 32 0.5
v 2 32 -0.5
v 3 9 0.5
v 3 9 -0.5
v 3 13 0.5
v 3 13 -0.5
v 3 18 0.5
v 3 18 -0.5
v 3 19 0.5
v 3 19 -0.5
v 4 1 0.5
v 4 1 -0.5
v 4 2 0.5
v 4 2 -0.5
v 4 8 0.5
v 4 8 -0.5
v 4 9 0.5
v 4 9 -0.5
v 4 13 0.5
v 4 13 -0.5
v 4 18 0.5
v 4 18 -0.5
v 5 2 0.5
v 5 2 -0.5
v 5 8 0.5
v 5 8 -0.5
v -5 2 0.5
v -5 4 0.5
v -5 8 0.5
v -4 1 0.5
v -4 2 0.5
v -4 4 0.5
v -4 6 0.5
v -4 7 0.5
v -4 8 0.5
v -4 9 0.5
v -4 13 0.5
v -4 18 0.5
v -3 6 0.5
v -3 7 0.5
v -3 8 0.5
v -3 9 0.5
v -3 13 0.5
v -3 18 0.5
v -3 19 0.5
v -2 0 0.5
v -2 1 0.5
v -2 7 0.5
v -2 8 0.5
v -2 9 0.5
v -2 13 0.5
v -2 29 0.5
v -2 30 0.5
v -2 31 0.5
v -1 3 0.5
v -1 4 0.5
v -1 7 0.5
v -1 8 0.5
v -1 9 0.5
v -1 12 0.5
v -1 18 0.5
v -1 19 0.5
v -1 29 0.5
v -1 30 0.5
v -1 31 0.5
v -1 33 0.5
v 0 2 0.5
v 0 3 0.5
v 0 30 0.5
v 0 31 0.5
v 1 0 0.5
v 1 1 0.5
v 1 2 0.5
v 1 4 0.5
v 1 7 0.5
v 1 8 0.5
v 1 9 0.5
v 1 12 0.5
v 1 18 0.5
v 1 19 0.5
v 1 29 0.5
v 1 30 0.5
v 1 31 0.5
v 1 32 0.5
v 1 33 0.5
v 2 0 0.5
v 2 1 0.5
v 2 2 0.5
v 2 7 0.5
v 2 8 0.5
v 2 9 0.5
v 2 13 0.5
v 2 29 0.5
v 2 30 0.5
v 2 31 0.5
v 2 32 0.5
v 3 6 0.5
v 3 7 0.5
v 3 8 0.5
v 3 9 0.5
v 3 13 0.5
v 3 18 0.5
v 3 19 0.5
v 4 1 0.5
v 4 2 0.5
v 4 6 0.5
v 4 7 0.5
v 4 8 0.5
v 4 9 0.5
v 4 13 0.5
v 4 18 0.5
v 5 2 0.5
v 5 8 0.5
v -5 2 -0.5
v -5 4 -0.5
v -5 8 -0.5
v -4 1 -0.5
v -4 2 -0.5
v -4 4 -0.5
v -4 6 -0.5
v -4 7 -0.5
v -4 8 -0.5
v -4 9 -0.5
v -4 13 -0.5
v -4 18 -0.5
v -3 6 -0.5
v -3 7 -0.5
v -3 8 -0.5
v -3 9 -0.5
v -3 13 -0.5
v -3 18 -0.5
v -3 19 -0.5
v -2 0 -0.5
v -2 1 -0.5
v -2 7 -0.5
v -2 8 -0.5
v -2 9 -0.5
v -2 13 -0.5
v -2 29 -0.5
v -2 30 -0.5
v -2 31 -0.5
v -1 3 -0.5
v -1 4 -0.5
v -1 7 -0.5
v -1 8 -0.5
v -1 9 -0.5
v -1 12 -0.5
v -1 18 -0.5
v -1 19 -0.5
v -1 29 -0.5
v -1 30 -0.5
v -1 31 -0.5
v -1 33 -0.5
v 0 2 -0.5
v 0 3 -0.5
v 0 30 -0.5
v 0 31 -0.5
v 1 0 -0.5
v 1 1 -0.5
v 1 2 -0.5
v 1 4 -0.5
v 1 7 -0.5
v 1 8 -0.5
v 1 9 -0.5
v 1 12 -0.5
v 1 18 -0.5
v 1 19 -0.5
v 1 29 -0.5
v 1 30 -0.5
v 1 31 -0.5
v 1 32 -0.5
v 1 33 -0.5
v 2 0 -0.5
v 2 1 -0.5
v 2 2 -0.5
v 2 7 -0.5
v 2 8 -0.5
v 2 9 -0.5
v 2 13 -0.5
v 2 29 -0.5
v 2 30 -0.5
v 2 31 -0.5
v 2 32 -0.5
v 3 6 -0.5
v 3 7 -0.5
v 3 8 -0.5
v 3 9 -0.5
v 3 13 -0.5
v 3 18 -0.5
v 3 19 -0.5
v 4 1 -0.5
v 4 2 -0.5
v 4 6 -0.5
v 4 7 -0.5
v 4 8 -0.5
v 4 9 -0.5
v 4 13 -0.5
v 4 18 -0.5
v 5 2 -0.5
v 5 8 -0.5
v -2 0 0.5
v 1 0 0.5
v 2 0 0.5
v -2 0 -0.5
v 1 0 -0.5
v 2 0 -0.5
v -4 1 0.5
v -2 1 0.5
v 2 1 0.5
v 4 1 0.5
v -4 1 -0.5
v -2 1 -0.5
v 2 1 -0.5
v 4 1 -0.5
v -5 2 0.5
v -4 2 0.5
v 4 2 0.5
v 5 2 0.5
v -5 2 -0.5
v -4 2 -0.5
v 4 2 -0.5
v 5 2 -0.5
v -4 13 0.5
v -3 13 0.5
v 3 13 0.5
v 4 13 0.5
v -4 13 -0.5
v -3 13 -0.5
v 3 13 -0.5
v 4 13 -0.5
v -2 29 0.5
v -1 29 0.5
v 1 29 0.5
v 2 29 0.5
v -2 29 -0.5
v -1 29 -0.5
v 1 29 -0.5
v 2 29 -0.5
v 0 31 0.5
v 1 31 0.5
v 2 31 0.5
v 0 31 -0.5
v 1 31 -0.5
v 2 31 -0.5
v -5 8 0.5
v -4 8 0.5
v 4 8 0.5
v 5 8 0.5
v -5 8 -0.5
v -4 8 -0.5
v 4 8 -0.5
v 5 8 -0.5
v -4 9 0.5
v -3 9 0.5
v 3 9 0.5
v 4 9 0.5
v -4 9 -0.5
v -3 9 -0.5
v 3 9 -0.5
v 4 9 -0.5
v -4 18 0.5
v -3 18 0.5
v 3 18 0.5
v 4 18 0.5
v -4 18 -0.5
v -3 18 -0.5
v 3 18 -0.5
v 4 18 -0.5
v -3 19 0.5
v -1 19 0.5
v 1 19 0.5
v 3 19 0.5
v -3 19 -0.5
v -1 19 -0.5
v 1 19 -0.5
v 3 19 -0.5
v 0 30 0.5
v 1 30 0.5
v 2 30 0.5
v 0 30 -0.5
v 1 30 -0.5
v 2 30 -0.5
v -2 31 0.5
v -1 31 0.5
v -2 31 -0.5
v -1 31 -0.5
v 1 32 0.5
v 2 32 0.5
v 1 32 -0.5
v 2 32 -0.5
v -1 33 0.5
v 1 33 0.5
v -1 33 -0.5
v 1 33 -0.5

# faces
f 3/3/1 2/3/1 1/3/1
f 4/3/1 2/3/1 3/3/1
f 5/2/1 4/2/1 3/2/1
f 6/2/1 4/2/1 5/2/1
f 9/3/1 8/3/1 7/3/1
f 10/3/1 8/3/1 9/3/1
f 13/2/1 12/2/1 11/2/1
f 14/2/1 12/2/1 13/2/1
f 17/2/1 16/2/1 15/2/1
f 18/2/1 16/2/1 17/2/1
f 21/2/1 20/2/1 19/2/1
f 22/2/1 20/2/1 21/2/1
f 25/2/1 24/2/1 23/2/1
f 26/2/1 24/2/1 25/2/1
f 29/3/1 28/3/1 27/3/1
f 30/3/1 28/3/1 29/3/1
f 33/4/1 32/4/1 31/4/1
f 34/4/1 32/4/1 33/4/1
f 35/3/1 34/3/1 33/3/1
f 36/3/1 34/3/1 35/3/1
f 39/3/1 38/3/1 37/3/1
f 40/3/1 38/3/1 39/3/1
f 43/2/1 42/2/1 41/2/1
f 44/2/1 42/2/1 43/2/1
f 45/2/2 46/2/2 47/2/2
f 47/2/2 46/2/2 48/2/2
f 49/3/2 50/3/2 51/3/2
f 51/3/2 50/3/2 52/3/2
f 53/2/2 54/2/2 55/2/2
f 55/2/2 54/2/2 56/2/2
f 57/2/2 58/2/2 59/2/2
f 59/2/2 58/2/2 60/2/2
f 61/3/2 62/3/2 63/3/2
f 63/3/2 62/3/2 64/3/2
f 65/4/2 66/4/2 67/4/2
f 67/4/2 66/4/2 68/4/2
f 69/2/2 70/2/2 71/2/2
f 71/2/2 70/2/2 72/2/2
f 73/2/2 74/2/2 75/2/2
f 75/2/2 74/2/2 76/2/2
f 77/2/2 78/2/2 79/2/2
f 79/2/2 78/2/2 80/2/2
f 81/2/2 82/2/2 83/2/2
f 83/2/2 82/2/2 84/2/2
f 85/2/2 86/2/2 87/2/2
f 87/2/2 86/2/2 88/2/2
f 89/2/2 90/2/2 91/2/2
f 91/2/2 90/2/2 92/2/2
f 97/3/3 94/3/3 93/3/3
f 98/2/3 95/2/3 94/2/3
f 98/3/3 94/3/3 97/3/3
f 99/2/3 95/2/3 98/2/3
f 100/2/3 95/2/3 99/2/3
f 101/2/3 95/2/3 100/2/3
f 105/1/3 99/1/3 98/1/3
f 105/3/3 100/3/3 99/3/3
f 106/1/3 101/1/3 100/1/3
f 106/3/3 100/3/3 105/3/3
f 107/2/3 102/2/3 101/2/3
f 107/1/3 101/1/3 106/1/3
f 108/2/3 102/2/3 107/2/3
f 109/2/3 104/2/3 103/2/3
f 110/2/3 104/2/3 109/2/3
f 113/3/3 97/3/3 96/3/3
f 113/3/3 98/3/3 97/3/3
f 114/1/3 106/1/3 105/1/3
f 114/3/3 107/3/3 106/3/3
f 115/1/3 108/1/3 107/1/3
f 115/3/3 107/3/3 114/3/3
f 116/2/3 109/2/3 108/2/3
f 116/1/3 108/1/3 115/1/3
f 117/1/3 110/1/3 109/1/3
f 117/2/3 109/2/3 116/2/3
f 121/3/3 113/3/3 112/3/3
f 121/3/3 98/3/3 113/3/3
f 122/1/3 116/1/3 115/1/3
f 122/3/3 98/3/3 121/3/3
f 122/1/3 114/1/3 105/1/3
f 122/1/3 105/1/3 98/1/3
f 122/1/3 117/1/3 116/1/3
f 122/1/3 115/1/3 114/1/3
f 123/1/3 117/1/3 122/1/3
f 124/1/3 117/1/3 123/1/3
f 125/1/3 117/1/3 124/1/3
f 126/1/3 117/1/3 125/1/3
f 127/2/3 111/2/3 110/2/3
f 127/1/3 117/1/3 126/1/3
f 127/1/3 110/1/3 117/1/3
f 128/2/3 111/2/3 127/2/3
f 129/4/3 119/4/3 118/4/3
f 130/3/3 120/3/3 119/3/3
f 130/4/3 119/4/3 129/4/3
f 131/3/3 120/3/3 130/3/3
f 133/3/3 121/3/3 112/3/3
f 134/1/3 122/1/3 121/1/3
f 134/3/3 121/3/3 133/3/3
f 135/2/3 132/2/3 131/2/3
f 135/2/3 130/2/3 129/2/3
f 135/2/3 131/2/3 130/2/3
f 136/2/3 132/2/3 135/2/3
f 137/3/3 133/3/3 112/3/3
f 138/3/3 133/3/3 137/3/3
f 139/1/3 134/1/3 133/1/3
f 139/3/3 133/3/3 138/3/3
f 140/1/3 122/1/3 134/1/3
f 140/1/3 134/1/3 139/1/3
f 140/3/3 123/3/3 122/3/3
f 141/1/3 124/1/3 123/1/3
f 141/3/3 123/3/3 140/3/3
f 142/2/3 125/2/3 124/2/3
f 142/1/3 124/1/3 141/1/3
f 143/1/3 126/1/3 125/1/3
f 143/2/3 125/2/3 142/2/3
f 144/3/3 129/3/3 128/3/3
f 144/1/3 126/1/3 143/1/3
f 144/3/3 128/3/3 127/3/3
f 144/3/3 127/3/3 126/3/3
f 145/3/3 129/3/3 144/3/3
f 146/3/3 129/3/3 145/3/3
f 147/2/3 135/2/3 129/2/3
f 147/3/3 129/3/3 146/3/3
f 148/2/3 135/2/3 147/2/3
f 149/2/3 132/2/3 136/2/3
f 150/2/3 132/2/3 149/2/3
f 151/2/3 132/2/3 150/2/3
f 152/2/3 138/2/3 137/2/3
f 153/1/3 142/1/3 141/1/3
f 153/2/3 138/2/3 152/2/3
f 153/1/3 139/1/3 138/1/3
f 153/1/3 141/1/3 140/1/3
f 153/1/3 143/1/3 142/1/3
f 153/1/3 145/1/3 144/1/3
f 153/1/3 144/1/3 143/1/3
f 153/1/3 140/1/3 139/1/3
f 154/1/3 145/1/3 153/1/3
f 155/1/3 145/1/3 154/1/3
f 156/1/3 145/1/3 155/1/3
f 157/1/3 145/1/3 156/1/3
f 158/1/3 145/1/3 157/1/3
f 159/3/3 148/3/3 147/3/3
f 160/3/3 148/3/3 159/3/3
f 161/4/3 150/4/3 149/4/3
f 162/4/3 150/4/3 161/4/3
f 163/1/3 155/1/3 154/1/3
f 164/3/3 156/3/3 155/3/3
f 164/1/3 155/1/3 163/1/3
f 165/1/3 157/1/3 156/1/3
f 165/3/3 156/3/3 164/3/3
f 166/2/3 158/2/3 157/2/3
f 166/1/3 157/1/3 165/1/3
f 167/1/3 145/1/3 158/1/3
f 167/2/3 158/2/3 166/2/3
f 168/2/3 146/2/3 145/2/3
f 168/1/3 145/1/3 167/1/3
f 169/2/3 146/2/3 168/2/3
f 170/2/3 154/2/3 153/2/3
f 171/1/3 163/1/3 154/1/3
f 171/2/3 154/2/3 170/2/3
f 172/3/3 164/3/3 163/3/3
f 172/1/3 163/1/3 171/1/3
f 173/1/3 165/1/3 164/1/3
f 173/3/3 164/3/3 172/3/3
f 174/2/3 166/2/3 165/2/3
f 174/1/3 165/1/3 173/1/3
f 175/2/3 166/2/3 174/2/3
f 176/2/3 168/2/3 167/2/3
f 177/2/3 168/2/3 176/2/3
f 178/2/3 173/2/3 172/2/3
f 178/2/3 174/2/3 173/2/3
f 178/2/3 172/2/3 171/2/3
f 179/2/3 174/2/3 178/2/3
f 180/3/4 181/3/4 184/3/4
f 181/2/4 182/2/4 185/2/4
f 184/3/4 181/3/4 185/3/4
f 185/2/4 182/2/4 186/2/4
f 186/2/4 182/2/4 187/2/4
f 187/2/4 182/2/4 188/2/4
f 185/1/4 186/1/4 192/1/4
f 186/3/4 187/3/4 192/3/4
f 187/1/4 188/1/4 193/1/4
f 192/3/4 187/3/4 193/3/4
f 188/2/4 189/2/4 194/2/4
f 193/1/4 188/1/4 194/1/4
f 194/2/4 189/2/4 195/2/4
f 190/2/4 191/2/4 196/2/4
f 196/2/4 191/2/4 197/2/4
f 183/3/4 184/3/4 200/3/4
f 184/3/4 185/3/4 200/3/4
f 192/1/4 193/1/4 201/1/4
f 193/3/4 194/3/4 201/3/4
f 194/1/4 195/1/4 202/1/4
f 201/3/4 194/3/4 202/3/4
f 195/2/4 196/2/4 203/2/4
f 202/1/4 195/1/4 203/1/4
f 196/1/4 197/1/4 204/1/4
f 203/2/4 196/2/4 204/2/4
f 199/3/4 200/3/4 208/3/4
f 200/3/4 185/3/4 208/3/4
f 202/1/4 203/1/4 209/1/4
f 208/3/4 185/3/4 209/3/4
f 192/1/4 201/1/4 209/1/4
f 185/1/4 192/1/4 209/1/4
f 203/1/4 204/1/4 209/1/4
f 201/1/4 202/1/4 209/1/4
f 209/1/4 204/1/4 210/1/4
f 210/1/4 204/1/4 211/1/4
f 211/1/4 204/1/4 212/1/4
f 212/1/4 204/1/4 213/1/4
f 197/2/4 198/2/4 214/2/4
f 213/1/4 204/1/4 214/1/4
f 204/1/4 197/1/4 214/1/4
f 214/2/4 198/2/4 215/2/4
f 205/4/4 206/4/4 216/4/4
f 206/3/4 207/3/4 217/3/4
f 216/4/4 206/4/4 217/4/4
f 217/3/4 207/3/4 218/3/4
f 199/3/4 208/3/4 220/3/4
f 208/1/4 209/1/4 221/1/4
f 220/3/4 208/3/4 221/3/4
f 218/2/4 219/2/4 222/2/4
f 216/2/4 217/2/4 222/2/4
f 217/2/4 218/2/4 222/2/4
f 222/2/4 219/2/4 223/2/4
f 199/3/4 220/3/4 224/3/4
f 224/3/4 220/3/4 225/3/4
f 220/1/4 221/1/4 226/1/4
f 225/3/4 220/3/4 226/3/4
f 221/1/4 209/1/4 227/1/4
f 226/1/4 221/1/4 227/1/4
f 209/3/4 210/3/4 227/3/4
f 210/1/4 211/1/4 228/1/4
f 227/3/4 210/3/4 228/3/4
f 211/2/4 212/2/4 229/2/4
f 228/1/4 211/1/4 229/1/4
f 212/1/4 213/1/4 230/1/4
f 229/2/4 212/2/4 230/2/4
f 215/3/4 216/3/4 231/3/4
f 230/1/4 213/1/4 231/1/4
f 214/3/4 215/3/4 231/3/4
f 213/3/4 214/3/4 231/3/4
f 231/3/4 216/3/4 232/3/4
f 232/3/4 216/3/4 233/3/4
f 216/2/4 222/2/4 234/2/4
f 233/3/4 216/3/4 234/3/4
f 234/2/4 222/2/4 235/2/4
f 223/2/4 219/2/4 236/2/4
f 236/2/4 219/2/4 237/2/4
f 237/2/4 219/2/4 238/2/4
f 224/2/4 225/2/4 239/2/4
f 228/1/4 229/1/4 240/1/4
f 239/2/4 225/2/4 240/2/4
f 225/1/4 226/1/4 240/1/4
f 227/1/4 228/1/4 240/1/4
f 229/1/4 230/1/4 240/1/4
f 231/1/4 232/1/4 240/1/4
f 230/1/4 231/1/4 240/1/4
f 226/1/4 227/1/4 240/1/4
f 240/1/4 232/1/4 241/1/4
f 241/1/4 232/1/4 242/1/4
f 242/1/4 232/1/4 243/1/4
f 243/1/4 232/1/4 244/1/4
f 244/1/4 232/1/4 245/1/4
f 234/3/4 235/3/4 246/3/4
f 246/3/4 235/3/4 247/3/4
f 236/4/4 237/4/4 248/4/4
f 248/4/4 237/4/4 249/4/4
f 241/1/4 242/1/4 250/1/4
f 242/3/4 243/3/4 251/3/4
f 250/1/4 242/1/4 251/1/4
f 243/1/4 244/1/4 252/1/4
f 251/3/4 243/3/4 252/3/4
f 244/2/4 245/2/4 253/2/4
f 252/1/4 244/1/4 253/1/4
f 245/1/4 232/1/4 254/1/4
f 253/2/4 245/2/4 254/2/4
f 232/2/4 233/2/4 255/2/4
f 254/1/4 232/1/4 255/1/4
f 255/2/4 233/2/4 256/2/4
f 240/2/4 241/2/4 257/2/4
f 241/1/4 250/1/4 258/1/4
f 257/2/4 241/2/4 258/2/4
f 250/3/4 251/3/4 259/3/4
f 258/1/4 250/1/4 259/1/4
f 251/1/4 252/1/4 260/1/4
f 259/3/4 251/3/4 260/3/4
f 252/2/4 253/2/4 261/2/4
f 260/1/4 252/1/4 261/1/4
f 261/2/4 253/2/4 262/2/4
f 254/2/4 255/2/4 263/2/4
f 263/2/4 255/2/4 264/2/4
f 259/2/4 260/2/4 265/2/4
f 260/2/4 261/2/4 265/2/4
f 258/2/4 259/2/4 265/2/4
f 265/2/4 261/2/4 266/2/4
f 270/3/5 268/3/5 267/3/5
f 271/2/5 269/2/5 268/2/5
f 271/3/5 268/3/5 270/3/5
f 272/2/5 269/2/5 271/2/5
f 277/3/5 274/3/5 273/3/5
f 278/3/5 274/3/5 277/3/5
f 279/2/5 276/2/5 275/2/5
f 280/2/5 276/2/5 279/2/5
f 285/3/5 282/3/5 281/3/5
f 286/3/5 282/3/5 285/3/5
f 287/2/5 284/2/5 283/2/5
f 288/2/5 284/2/5 287/2/5
f 293/2/5 290/2/5 289/2/5
f 294/2/5 290/2/5 293/2/5
f 295/2/5 292/2/5 291/2/5
f 296/2/5 292/2/5 295/2/5
f 301/4/5 298/4/5 297/4/5
f 302/4/5 298/4/5 301/4/5
f 303/3/5 300/3/5 299/3/5
f 304/3/5 300/3/5 303/3/5
f 308/2/5 306/2/5 305/2/5
f 309/4/5 307/4/5 306/4/5
f 309/2/5 306/2/5 308/2/5
f 310/4/5 307/4/5 309/4/5
f 311/2/6 312/2/6 315/2/6
f 315/2/6 312/2/6 316/2/6
f 313/2/6 314/2/6 317/2/6
f 317/2/6 314/2/6 318/2/6
f 319/2/6 320/2/6 323/2/6
f 323/2/6 320/2/6 324/2/6
f 321/2/6 322/2/6 325/2/6
f 325/2/6 322/2/6 326/2/6
f 327/2/6 328/2/6 331/2/6
f 331/2/6 328/2/6 332/2/6
f 329/2/6 330/2/6 333/2/6
f 333/2/6 330/2/6 334/2/6
f 335/2/6 336/2/6 339/2/6
f 339/2/6 336/2/6 340/2/6
f 337/2/6 338/2/6 341/2/6
f 341/2/6 338/2/6 342/2/6
f 343/2/6 344/2/6 346/2/6
f 344/3/6 345/3/6 347/3/6
f 346/2/6 344/2/6 347/2/6
f 347/3/6 345/3/6 348/3/6
f 349/3/6 350/3/6 351/3/6
f 351/3/6 350/3/6 352/3/6
f 353/4/6 354/4/6 355/4/6
f 355/4/6 354/4/6 356/4/6
f 357/2/6 358/2/6 359/2/6
f 359/2/6 358/2/6 360/2/6
